<?xml version="1.0" encoding="UTF-8" standalone="no"?>
<svg
   xmlns:dc="http://purl.org/dc/elements/1.1/"
   xmlns:cc="http://creativecommons.org/ns#"
   xmlns:rdf="http://www.w3.org/1999/02/22-rdf-syntax-ns#"
   xmlns:svg="http://www.w3.org/2000/svg"
   xmlns="http://www.w3.org/2000/svg"
   xmlns:sodipodi="http://sodipodi.sourceforge.net/DTD/sodipodi-0.dtd"
   xmlns:inkscape="http://www.inkscape.org/namespaces/inkscape"
   version="1.0"
   width="3375pt"
   height="1085pt"
   viewBox="0 0 3375 1085"
   preserveAspectRatio="xMidYMid meet"
   id="svg2"
   inkscape:version="0.91 r13725"
   sodipodi:docname="Igor_Stravinsky_1946.svg">
  <defs
     id="defs28" />
  <sodipodi:namedview
     pagecolor="#ffffff"
     bordercolor="#666666"
     borderopacity="1"
     objecttolerance="10"
     gridtolerance="10"
     guidetolerance="10"
     inkscape:pageopacity="0"
     inkscape:pageshadow="2"
     inkscape:window-width="1215"
     inkscape:window-height="605"
     id="namedview26"
     showgrid="false"
     inkscape:zoom="0.16486486"
     inkscape:cx="2290.2232"
     inkscape:cy="799.57797"
     inkscape:window-x="0"
     inkscape:window-y="0"
     inkscape:window-maximized="0"
     inkscape:current-layer="svg2" />
  <metadata
     id="metadata4">
Created by potrace 1.12, written by Peter Selinger 2001-2015
<rdf:RDF>
  <cc:Work
     rdf:about="">
    <dc:format>image/svg+xml</dc:format>
    <dc:type
       rdf:resource="http://purl.org/dc/dcmitype/StillImage" />
    <dc:title></dc:title>
  </cc:Work>
</rdf:RDF>
</metadata>
  <g
     transform="matrix(0.1,0,0,-0.1,0,1206.3115)"
     id="g6"
     style="fill:#000000;stroke:none">
    <path
       d="m 7334,11763 c -10,-21 -22,-40 -27,-41 -4,-2 -15,-11 -23,-20 -11,-10 -36,-16 -73,-17 -59,-2 -98,-19 -107,-47 -3,-10 -9,-18 -14,-18 -5,0 -49,-30 -97,-66 -48,-37 -94,-69 -100,-71 -7,-3 -13,-14 -13,-25 0,-11 -8,-22 -20,-25 -11,-3 -20,-9 -20,-14 0,-5 -5,-9 -11,-9 -11,0 -79,-70 -79,-82 0,-5 -10,-8 -23,-8 -12,0 -34,-11 -49,-25 -15,-14 -30,-25 -33,-25 -4,0 -19,-13 -35,-28 -28,-29 -129,-82 -154,-82 -7,0 -18,-12 -24,-26 -7,-14 -17,-22 -23,-18 -6,3 -24,-10 -41,-30 -16,-20 -39,-36 -50,-36 -13,0 -18,-5 -15,-14 7,-17 -13,-26 -55,-26 -22,0 -43,-12 -74,-40 -27,-25 -53,-40 -69,-40 -14,0 -28,-6 -31,-14 -3,-8 -30,-27 -61,-41 -61,-30 -123,-80 -123,-100 0,-6 -19,-20 -42,-31 -24,-10 -47,-24 -53,-31 -5,-6 -29,-16 -51,-22 -23,-6 -58,-25 -79,-41 -21,-17 -44,-30 -51,-30 -7,0 -26,-12 -41,-26 -15,-14 -55,-38 -88,-53 -33,-15 -66,-35 -74,-44 -7,-9 -19,-17 -27,-17 -18,0 -84,-40 -84,-51 0,-5 -13,-9 -29,-9 -20,0 -34,-8 -45,-25 -9,-14 -21,-25 -27,-25 -6,0 -32,-10 -58,-23 -25,-13 -50,-25 -56,-27 -5,-2 -26,-13 -45,-25 -20,-13 -58,-24 -89,-27 -44,-4 -59,-11 -76,-32 -11,-14 -29,-26 -40,-26 -18,0 -28,-7 -79,-57 -18,-18 -31,-21 -60,-18 -25,4 -42,0 -52,-10 -9,-8 -20,-13 -25,-10 -14,10 -49,-14 -43,-30 6,-14 -64,-55 -93,-55 -8,0 -31,-9 -53,-20 -22,-11 -58,-20 -80,-20 -23,0 -51,-5 -62,-11 -11,-6 -35,-13 -52,-16 -17,-3 -38,-11 -47,-19 -8,-8 -19,-14 -23,-14 -4,0 -23,-12 -41,-26 -19,-14 -39,-23 -44,-20 -14,9 -140,-50 -164,-75 -16,-17 -28,-20 -58,-16 -24,3 -45,0 -56,-9 -10,-7 -30,-14 -44,-14 -15,0 -47,-11 -70,-25 -24,-14 -60,-25 -80,-25 -22,0 -52,-11 -80,-29 -46,-31 -101,-38 -128,-18 -10,9 -18,6 -31,-11 -21,-25 -30,-28 -30,-8 0,9 -17,16 -46,21 -53,8 -64,25 -41,69 10,18 19,64 21,111 3,52 11,94 24,120 11,22 18,44 15,48 -3,5 9,22 26,37 17,16 31,39 31,51 0,13 8,32 18,43 11,12 24,47 31,79 7,31 17,57 22,57 5,0 9,11 9,25 0,14 9,35 20,47 11,12 20,27 20,34 0,6 7,15 15,18 11,4 15,17 13,41 -1,20 2,39 8,43 56,38 22,209 -40,200 -17,-2 -23,-13 -32,-58 l -10,-55 -80,0 c -83,0 -104,-6 -104,-31 0,-9 -23,-25 -53,-38 -53,-24 -80,-46 -75,-62 1,-5 -5,-22 -14,-39 -8,-16 -21,-48 -28,-70 -11,-36 -61,-131 -93,-178 -10,-14 -9,-19 2,-26 11,-7 10,-12 -8,-22 -11,-8 -21,-18 -21,-23 0,-5 -6,-17 -14,-25 -7,-9 -21,-43 -31,-76 -9,-33 -21,-70 -26,-83 -5,-13 -9,-34 -9,-47 0,-13 -8,-29 -18,-34 -19,-10 -43,-82 -45,-136 -1,-16 -6,-36 -11,-43 -4,-8 -10,-32 -12,-55 -2,-23 -4,-46 -5,-52 -3,-28 15,-92 30,-108 23,-24 146,-66 163,-56 7,5 38,9 69,9 34,0 74,8 100,19 24,11 54,17 69,15 14,-3 60,4 102,15 43,12 102,21 132,21 43,0 70,8 123,35 37,19 74,35 81,35 7,0 15,7 18,15 4,8 19,15 34,15 16,0 32,5 35,10 3,6 15,10 26,10 11,0 37,11 59,25 22,14 43,25 47,25 5,0 14,9 21,20 7,12 23,20 41,20 17,0 31,6 35,16 5,12 14,15 36,10 17,-3 30,-1 30,4 0,6 11,10 25,10 13,0 33,9 43,21 11,11 43,26 72,34 29,8 60,21 69,29 10,9 23,16 30,16 6,0 22,6 34,14 12,8 40,17 61,21 23,4 47,16 57,29 11,15 38,27 76,35 71,16 93,27 93,47 0,10 5,12 13,7 21,-13 50,-3 94,33 23,19 50,34 60,34 10,0 35,12 56,26 21,14 49,26 63,27 14,1 28,7 32,13 4,6 23,16 43,23 20,6 45,21 54,31 10,11 24,20 30,20 7,0 15,7 19,15 3,8 12,15 20,15 7,0 16,7 19,14 3,8 22,18 42,22 20,3 48,17 63,29 15,12 38,26 52,30 13,4 30,14 38,21 7,8 22,14 33,14 10,0 46,20 80,45 34,25 72,45 85,45 15,0 24,6 24,15 0,9 9,15 21,15 12,0 41,16 65,35 23,19 49,35 58,35 8,0 19,6 23,13 8,14 152,87 171,87 6,0 23,16 38,35 15,21 35,35 48,35 27,0 40,9 55,38 6,12 20,22 30,22 10,0 33,14 50,31 18,17 39,28 46,25 8,-3 18,2 23,11 5,9 23,22 40,29 27,11 34,11 46,-1 14,-15 11,-51 -5,-61 -5,-3 -9,-15 -9,-27 0,-21 -31,-57 -49,-57 -16,0 -39,-36 -50,-76 -9,-33 -17,-43 -38,-49 -41,-10 -91,-66 -95,-106 -2,-25 -8,-35 -23,-37 -21,-3 -90,-87 -90,-109 0,-7 -10,-20 -23,-28 -12,-9 -22,-20 -22,-24 0,-5 -18,-28 -40,-52 -22,-25 -40,-54 -40,-67 0,-24 -73,-101 -144,-154 -22,-15 -50,-45 -64,-66 -14,-20 -47,-63 -73,-94 -27,-31 -49,-59 -49,-63 0,-4 -20,-26 -45,-51 -25,-24 -45,-50 -45,-59 0,-9 -13,-27 -28,-40 -15,-13 -36,-38 -46,-57 -10,-18 -36,-46 -57,-63 -21,-16 -38,-36 -39,-42 0,-7 -29,-43 -65,-80 -36,-37 -65,-72 -65,-78 0,-7 -9,-20 -21,-31 -12,-10 -18,-26 -15,-37 3,-13 -3,-21 -20,-27 -14,-6 -30,-23 -35,-39 -6,-16 -16,-32 -24,-35 -8,-3 -11,-13 -8,-25 3,-12 1,-21 -6,-21 -6,0 -11,4 -11,10 0,21 -28,-3 -33,-29 -4,-16 -16,-32 -31,-39 -14,-6 -28,-23 -32,-37 -3,-13 -10,-22 -15,-19 -11,6 -79,-65 -79,-83 0,-6 -13,-20 -30,-30 -16,-9 -30,-23 -30,-29 0,-7 -12,-22 -27,-34 -16,-12 -28,-25 -28,-28 -2,-21 -134,-154 -146,-147 -5,4 -9,-7 -9,-24 0,-23 -10,-38 -45,-68 -29,-24 -45,-45 -45,-60 0,-13 -6,-23 -14,-23 -8,0 -24,-12 -36,-27 -12,-16 -41,-48 -65,-73 -24,-25 -50,-63 -59,-83 -8,-20 -20,-37 -25,-37 -6,0 -11,-11 -11,-25 0,-16 -12,-34 -35,-52 -19,-15 -49,-47 -66,-69 -17,-23 -51,-57 -75,-75 -24,-18 -44,-36 -44,-40 0,-14 -80,-129 -90,-129 -5,0 -22,-19 -39,-42 -16,-24 -64,-79 -105,-123 -42,-44 -76,-85 -76,-91 0,-7 -19,-33 -42,-60 -39,-44 -61,-66 -140,-143 -16,-14 -28,-33 -28,-41 0,-8 -21,-38 -48,-65 -26,-28 -56,-64 -67,-80 -11,-16 -32,-42 -47,-58 -16,-16 -28,-32 -28,-37 0,-4 -6,-13 -14,-19 -8,-7 -17,-24 -21,-39 -3,-15 -29,-48 -57,-74 -28,-26 -56,-58 -62,-70 -6,-13 -25,-30 -42,-38 -28,-14 -85,-72 -109,-111 -17,-27 -93,-121 -135,-167 -22,-24 -40,-47 -40,-50 0,-4 -9,-13 -20,-20 -11,-7 -20,-21 -20,-32 0,-11 -5,-20 -11,-20 -6,0 -44,-35 -85,-77 -95,-99 -99,-104 -124,-153 -11,-22 -25,-40 -30,-40 -12,0 -90,-83 -115,-123 -11,-18 -32,-45 -47,-61 -16,-16 -28,-37 -28,-48 0,-10 -8,-21 -17,-25 -22,-8 -93,-75 -93,-87 0,-15 -70,-97 -142,-166 -38,-36 -68,-70 -68,-75 0,-6 -24,-34 -54,-63 -30,-28 -58,-62 -62,-75 -4,-12 -31,-46 -60,-76 -30,-29 -54,-56 -54,-59 0,-3 -11,-20 -25,-38 -14,-18 -25,-40 -25,-48 0,-21 -40,-59 -75,-71 -16,-6 -35,-21 -41,-33 -15,-30 -38,-45 -91,-61 -24,-6 -43,-16 -43,-21 0,-16 -38,-11 -48,5 -5,9 -24,17 -46,18 -20,2 -40,8 -44,13 -4,6 -17,14 -29,18 -34,11 -33,16 52,171 39,71 42,78 86,170 23,50 50,100 60,113 10,13 25,47 35,75 9,29 23,61 30,72 8,11 14,27 14,37 0,10 17,28 38,42 54,34 64,50 61,98 -4,78 10,131 44,160 17,14 31,37 32,50 17,233 17,252 6,286 -8,23 -23,42 -38,49 -22,11 -28,9 -44,-10 -10,-12 -18,-27 -19,-34 0,-6 -17,-25 -37,-43 -30,-24 -46,-30 -76,-28 -41,2 -31,10 -207,-164 -15,-15 -30,-39 -34,-52 -7,-30 -63,-116 -116,-181 -72,-88 -130,-172 -130,-190 0,-10 -10,-27 -22,-39 -13,-12 -38,-42 -56,-66 -17,-25 -50,-67 -72,-95 -22,-27 -40,-58 -40,-67 0,-28 -38,-62 -54,-49 -10,9 -15,3 -19,-24 -7,-45 -60,-108 -76,-92 -6,6 -14,8 -18,4 -4,-4 -1,-13 5,-19 7,-7 12,-20 12,-30 0,-19 -42,-109 -78,-168 -34,-54 -92,-177 -92,-193 0,-8 -7,-17 -15,-21 -8,-3 -15,-11 -15,-19 0,-7 -11,-23 -24,-36 -13,-12 -36,-54 -51,-94 -15,-40 -33,-78 -39,-86 -6,-7 -12,-30 -13,-49 -1,-20 -9,-39 -16,-44 -8,-4 -18,-19 -21,-33 -5,-20 5,-43 48,-108 30,-45 67,-94 84,-109 16,-14 35,-44 42,-65 14,-42 46,-83 67,-83 7,0 13,-8 13,-18 0,-10 13,-33 29,-51 16,-18 31,-49 35,-70 5,-33 10,-39 37,-45 52,-10 69,-7 103,19 18,14 42,25 54,25 28,0 111,51 118,72 3,10 17,25 32,34 15,8 42,40 61,70 22,36 53,68 88,91 29,19 53,41 53,49 0,17 74,103 186,218 44,45 99,107 122,138 25,34 51,58 68,62 41,11 93,55 109,93 8,18 21,33 29,33 8,0 21,10 27,23 22,43 89,87 132,87 13,0 44,15 68,32 64,47 90,59 112,52 19,-6 107,35 135,63 7,7 19,13 26,13 18,0 96,39 118,60 10,9 30,18 44,18 14,0 33,7 42,16 10,9 32,19 49,22 19,4 33,14 36,25 4,14 14,19 38,19 31,0 141,46 147,62 2,4 10,8 19,8 24,0 102,50 108,69 4,14 21,20 73,25 59,6 77,14 147,60 44,29 88,55 98,59 9,3 17,11 17,18 0,19 44,48 73,49 15,0 30,7 33,15 4,10 20,15 46,15 43,0 84,25 102,63 9,17 22,23 55,25 31,2 44,8 48,20 5,20 40,37 97,47 22,4 63,22 93,41 29,19 62,34 72,34 10,0 24,7 31,15 7,9 33,25 57,36 23,11 43,24 43,29 0,18 34,50 53,50 10,0 30,6 45,14 16,8 58,24 95,36 54,17 70,28 88,56 16,26 26,33 41,29 10,-4 24,-2 31,3 7,5 23,13 37,17 14,4 41,18 60,31 19,13 45,24 57,24 16,0 25,8 29,25 6,22 11,25 58,26 98,1 170,28 192,71 8,16 20,28 27,28 6,0 23,9 37,20 14,11 34,20 45,20 11,0 33,7 49,15 15,8 37,15 47,15 11,0 51,18 90,40 39,22 77,40 85,40 8,0 14,5 14,11 0,5 8,9 18,8 25,-4 59,10 66,26 6,17 35,9 51,-12 9,-11 15,-9 33,12 26,30 46,29 50,-4 4,-27 -34,-72 -54,-64 -10,3 -14,-2 -14,-19 0,-27 -37,-68 -61,-68 -8,0 -22,-8 -30,-17 -9,-10 -29,-27 -45,-38 -16,-11 -39,-30 -52,-42 -13,-13 -26,-23 -29,-23 -14,0 -73,-45 -73,-56 0,-19 -140,-154 -160,-154 -11,0 -24,-9 -30,-21 -7,-11 -25,-25 -40,-31 -16,-5 -32,-18 -35,-29 -4,-10 -15,-19 -26,-19 -12,0 -19,-7 -19,-18 0,-18 -54,-72 -71,-72 -5,0 -12,-7 -15,-15 -4,-8 -21,-22 -39,-31 -21,-9 -38,-27 -44,-45 -5,-16 -15,-29 -21,-29 -6,0 -15,-11 -21,-24 -7,-14 -22,-27 -35,-30 -13,-4 -28,-15 -33,-25 -6,-10 -42,-50 -81,-88 -41,-42 -70,-79 -70,-91 0,-25 -34,-84 -72,-126 -16,-17 -39,-50 -51,-74 -11,-24 -36,-61 -54,-82 -18,-21 -33,-41 -33,-45 0,-4 -15,-22 -32,-41 -42,-44 -50,-93 -25,-154 21,-52 46,-82 59,-74 15,9 42,-37 45,-74 1,-22 -8,-49 -28,-81 -16,-27 -29,-57 -29,-68 0,-11 -9,-28 -20,-38 -11,-10 -20,-24 -20,-31 0,-7 -36,-57 -81,-111 -44,-53 -87,-112 -94,-131 -13,-30 -66,-92 -79,-92 -3,0 -33,-28 -67,-62 -51,-53 -60,-67 -55,-89 5,-27 -11,-50 -45,-62 -9,-3 -38,-38 -66,-79 -49,-71 -51,-73 -104,-83 -30,-5 -64,-17 -76,-26 -24,-17 -83,-93 -83,-107 0,-14 -64,-70 -85,-74 -12,-2 -21,-13 -23,-28 -5,-34 -30,-60 -58,-60 -17,0 -25,-9 -34,-36 -12,-36 -36,-68 -95,-128 -28,-28 -86,-98 -154,-185 -14,-19 -48,-57 -75,-85 -26,-28 -52,-60 -56,-71 -4,-11 -33,-55 -64,-98 -31,-43 -56,-81 -56,-84 0,-3 -16,-30 -35,-59 -19,-29 -35,-57 -35,-62 0,-5 -7,-15 -15,-22 -10,-8 -15,-30 -15,-61 0,-37 -7,-61 -30,-97 -17,-27 -30,-52 -30,-56 0,-4 -16,-24 -36,-44 -20,-20 -43,-52 -51,-70 -7,-18 -25,-37 -39,-42 -16,-6 -32,-25 -42,-50 -9,-22 -22,-40 -28,-40 -25,0 -94,-103 -94,-140 0,-11 -5,-20 -10,-20 -6,0 -16,-12 -22,-26 -12,-26 -22,-38 -121,-141 -26,-28 -47,-57 -47,-65 0,-9 -11,-32 -26,-53 -14,-21 -29,-57 -33,-80 -4,-24 -22,-66 -40,-94 -17,-28 -31,-55 -31,-59 0,-4 -10,-23 -21,-42 -42,-68 -26,-181 27,-194 25,-7 104,14 104,26 0,5 8,8 18,8 35,0 87,33 140,87 28,31 52,64 52,74 0,10 14,28 30,41 17,12 30,25 30,30 0,4 20,35 45,67 25,33 52,75 60,94 8,19 21,37 30,41 9,3 22,21 30,39 8,19 25,47 39,63 96,113 126,150 126,157 0,5 20,35 45,67 25,32 45,63 45,69 0,12 87,99 194,196 36,32 66,65 66,73 0,8 9,25 20,39 11,14 20,31 20,39 0,7 13,15 29,19 16,3 32,13 35,20 3,8 12,12 21,9 19,-8 44,12 56,43 6,17 16,23 39,23 26,0 31,5 37,30 3,17 12,30 19,30 8,0 14,5 14,10 0,6 10,10 23,10 12,0 31,7 41,15 11,8 28,15 39,15 25,0 155,65 187,94 14,12 36,28 50,35 14,6 43,23 65,36 22,13 48,24 59,24 10,1 27,12 38,26 11,14 27,25 36,25 23,0 109,46 152,81 19,16 46,29 60,29 14,0 34,7 44,15 11,8 27,15 35,15 9,0 27,9 41,20 14,11 32,20 41,20 8,0 24,9 36,19 27,26 89,56 142,71 24,6 53,22 66,36 12,13 29,24 37,24 9,0 26,9 40,19 13,11 37,23 51,26 15,4 27,11 27,15 0,5 13,11 29,15 26,6 121,87 121,104 0,4 32,16 71,26 49,14 76,27 86,42 8,12 35,32 59,43 24,12 44,26 44,31 0,6 4,8 9,4 23,-13 166,58 155,77 -3,4 2,8 11,8 9,0 37,11 63,25 26,14 54,25 63,25 25,0 69,39 69,61 0,10 5,19 10,19 9,0 18,7 71,55 9,8 25,15 36,15 27,0 91,-27 122,-51 13,-10 35,-19 49,-19 14,0 34,-7 43,-16 23,-20 94,-28 122,-12 30,16 178,29 193,17 18,-15 115,42 139,83 9,15 22,28 28,28 7,0 38,26 70,59 34,35 69,61 86,64 16,4 41,18 56,32 16,14 34,25 41,25 8,0 14,5 14,10 0,6 7,10 16,10 8,0 32,18 51,40 20,22 44,40 53,40 9,0 25,9 35,20 10,11 29,20 42,20 16,0 36,13 56,35 17,19 37,35 44,35 7,0 18,9 25,20 7,11 18,20 24,20 6,0 17,12 24,26 17,31 86,69 96,53 4,-7 11,-2 18,12 6,12 22,26 36,29 14,4 50,19 81,33 31,15 60,27 65,27 6,0 16,6 23,12 6,7 17,13 24,13 7,0 20,26 30,58 14,45 23,57 39,57 11,0 32,6 46,14 56,30 120,56 202,82 47,15 94,35 106,45 11,11 28,19 37,19 20,0 159,71 207,106 8,6 35,16 59,23 46,13 53,17 109,69 24,22 45,32 67,32 19,0 39,8 50,20 10,11 23,20 28,20 5,0 20,11 33,25 13,14 29,25 37,25 7,0 17,4 23,8 5,5 29,14 54,21 25,8 57,18 73,23 19,8 31,7 41,-1 17,-14 53,-10 116,14 75,28 96,29 120,5 l 22,-22 -28,-39 c -14,-21 -33,-39 -40,-39 -8,0 -14,-4 -14,-9 0,-9 -48,-57 -88,-88 -33,-26 -46,-122 -22,-161 24,-39 39,-49 87,-55 23,-3 52,-14 64,-26 22,-20 34,-25 52,-22 4,1 15,-5 23,-14 29,-28 156,-7 176,30 22,38 44,55 78,61 19,4 48,16 64,27 27,19 83,24 209,18 13,-1 17,-10 17,-43 l 0,-43 -111,-75 c -61,-41 -120,-82 -132,-92 -11,-10 -24,-18 -29,-18 -12,0 -71,-42 -81,-57 -4,-7 -15,-13 -23,-13 -8,0 -22,-15 -31,-34 -9,-20 -26,-37 -39,-40 -13,-4 -46,-28 -73,-54 -74,-72 -152,-142 -158,-142 -3,0 -47,-42 -98,-92 -139,-138 -172,-168 -183,-168 -6,0 -20,-19 -31,-43 -12,-24 -30,-53 -41,-65 -11,-11 -20,-24 -20,-27 0,-4 -14,-27 -31,-52 -28,-40 -31,-51 -27,-102 5,-65 25,-98 74,-122 29,-14 40,-15 86,-3 29,8 65,14 80,14 15,0 28,5 28,10 0,6 18,10 41,10 32,0 46,6 61,25 15,20 28,25 63,25 26,0 47,6 55,15 7,8 21,15 31,15 10,0 22,7 27,16 8,14 13,14 31,4 19,-10 26,-9 45,9 12,12 32,21 43,21 52,0 84,13 99,42 9,18 32,36 60,48 24,11 44,24 44,30 0,5 5,10 11,10 6,0 25,10 41,22 17,12 43,23 57,24 79,8 185,57 259,119 17,14 41,25 55,25 20,0 30,8 42,34 12,25 25,37 48,42 42,9 103,40 127,64 27,27 25,51 -6,73 -33,24 -143,26 -196,4 -34,-14 -40,-14 -69,0 -30,15 -34,14 -76,-6 -69,-34 -171,-25 -187,15 -8,22 23,94 41,94 7,0 23,10 37,23 13,12 39,33 56,47 17,14 46,37 63,52 18,15 39,28 47,28 8,0 46,32 83,70 38,39 88,78 115,91 26,12 52,24 58,28 19,10 139,94 144,101 19,22 97,74 150,99 34,16 69,36 78,44 9,7 49,29 87,48 39,18 92,46 118,61 26,16 53,28 59,28 6,0 34,19 62,43 28,24 65,51 81,61 62,36 75,125 26,169 l -30,26 -129,-14 c -72,-7 -143,-20 -159,-28 -15,-8 -64,-18 -108,-22 -44,-4 -93,-13 -110,-20 -27,-11 -68,-19 -215,-41 -25,-3 -53,-10 -62,-15 -10,-5 -27,-5 -43,1 -18,7 -33,7 -46,0 -10,-6 -19,-7 -19,-2 0,5 -11,14 -25,20 -16,7 -25,20 -25,34 0,29 72,101 122,121 20,8 39,24 42,35 6,16 18,20 72,24 53,3 69,8 82,26 13,16 21,19 32,12 11,-7 20,-3 32,13 10,12 18,16 18,10 0,-7 5,-13 11,-13 6,0 9,9 6,20 -5,18 0,20 54,20 33,0 59,4 59,10 0,6 11,16 25,22 14,6 28,21 31,32 3,12 30,36 60,55 40,26 51,38 43,47 -8,10 0,24 30,56 23,23 41,50 41,61 0,49 -64,138 -89,123 -4,-3 -32,-6 -62,-7 -30,-1 -72,-10 -93,-20 -46,-22 -77,-23 -129,-5 -28,10 -47,11 -75,4 -20,-6 -93,-12 -162,-13 -69,-2 -163,-4 -210,-6 -66,-3 -93,1 -120,14 -21,11 -54,18 -85,17 -27,-1 -75,-1 -106,-1 l -55,1 -45,86 c -24,48 -54,93 -66,102 -19,12 -23,24 -23,64 0,27 7,62 15,79 17,32 12,50 -31,102 -13,16 -24,34 -24,40 -1,30 -38,56 -86,60 -27,3 -57,8 -67,12 -21,9 -143,-12 -179,-31 -14,-8 -34,-14 -44,-14 -16,0 -45,-12 -174,-73 -25,-12 -60,-31 -79,-44 -19,-13 -43,-23 -55,-23 -12,0 -67,-23 -123,-50 -56,-28 -116,-53 -133,-57 -18,-3 -34,-12 -37,-20 -3,-7 -26,-26 -52,-40 -25,-15 -64,-40 -85,-55 -21,-15 -46,-28 -55,-29 -9,0 -29,-9 -46,-20 -16,-10 -37,-22 -45,-26 -8,-3 -33,-21 -55,-38 -22,-17 -63,-41 -91,-52 -28,-11 -74,-37 -102,-57 -29,-20 -57,-36 -64,-36 -7,0 -35,-20 -63,-45 -27,-25 -55,-45 -62,-45 -6,0 -16,-6 -20,-12 -4,-7 -17,-18 -28,-25 -115,-69 -155,-95 -162,-107 -4,-7 -27,-23 -50,-36 -24,-13 -43,-27 -43,-32 0,-4 -5,-8 -10,-8 -6,0 -16,-5 -23,-10 -7,-6 -25,-22 -42,-36 -16,-14 -44,-32 -61,-39 -17,-8 -43,-32 -59,-54 -15,-23 -31,-41 -35,-41 -30,0 -369,-329 -380,-370 -4,-14 -12,-24 -18,-23 -11,3 -99,-83 -129,-125 -29,-41 -86,-105 -116,-131 -15,-14 -35,-39 -43,-57 -8,-18 -40,-60 -70,-95 -30,-34 -54,-66 -54,-70 0,-4 -9,-11 -21,-14 -11,-4 -26,-19 -32,-33 -7,-15 -22,-35 -35,-46 -13,-10 -21,-21 -18,-24 6,-5 -26,-53 -57,-87 -10,-11 -21,-31 -24,-45 -2,-14 -18,-41 -34,-59 -16,-19 -29,-37 -29,-42 0,-18 -58,-60 -104,-75 -27,-9 -68,-33 -90,-53 -56,-50 -152,-111 -175,-111 -10,0 -24,-6 -30,-14 -6,-7 -29,-16 -51,-20 -22,-3 -40,-11 -40,-16 0,-6 -6,-10 -14,-10 -8,0 -28,-11 -44,-25 -17,-14 -36,-25 -44,-25 -8,0 -40,-16 -72,-35 -32,-19 -62,-35 -66,-35 -4,0 -13,-6 -19,-14 -7,-8 -24,-17 -38,-21 -15,-3 -33,-15 -41,-26 -7,-10 -24,-19 -37,-19 -24,0 -86,-30 -115,-55 -8,-7 -28,-16 -45,-20 -37,-8 -115,-47 -115,-57 0,-5 -6,-8 -13,-8 -8,0 -22,-9 -32,-20 -10,-11 -28,-20 -41,-20 -13,0 -27,-6 -31,-13 -13,-22 -98,-67 -127,-67 -14,0 -34,-4 -44,-10 -9,-5 -43,-19 -75,-31 -33,-12 -64,-31 -73,-44 -11,-17 -29,-26 -62,-31 -26,-3 -54,-12 -62,-18 -31,-24 -100,-57 -109,-52 -5,3 -26,-8 -46,-24 -21,-17 -47,-30 -59,-30 -11,0 -39,-12 -61,-25 -37,-23 -78,-35 -61,-17 4,4 13,7 19,7 30,0 4,54 -32,66 -9,3 -7,14 4,39 29,63 46,90 56,90 5,0 9,5 9,10 0,6 10,21 21,33 12,12 35,43 51,70 17,26 43,54 59,63 20,10 32,25 36,45 3,17 17,38 31,47 13,9 31,31 38,48 8,18 39,56 71,86 31,29 73,71 93,92 39,44 58,64 86,87 10,9 37,43 59,74 22,31 52,70 68,86 15,16 27,34 27,41 0,7 21,35 45,61 25,26 45,52 45,57 0,6 6,10 13,10 11,0 66,80 67,98 1,4 14,18 30,32 17,13 30,29 30,35 0,6 14,21 30,33 17,13 30,28 30,35 0,7 15,24 33,37 17,13 40,34 49,46 10,12 40,31 68,43 44,19 124,89 173,151 7,8 21,20 32,26 11,6 25,20 30,32 13,23 89,90 122,105 12,5 27,23 32,40 11,30 11,30 70,24 44,-5 64,-3 74,7 7,7 32,17 55,21 23,4 44,11 48,16 3,5 20,16 37,24 18,8 47,26 66,40 19,14 44,25 57,25 13,0 26,4 29,10 3,5 18,7 34,4 26,-6 28,-4 23,24 -2,16 1,33 7,36 6,4 11,20 11,35 0,23 11,35 66,70 44,29 69,52 76,72 5,16 19,34 29,40 10,5 19,15 19,22 0,7 15,18 33,26 121,50 187,90 187,114 0,7 12,26 28,42 37,42 66,100 58,120 -8,22 49,95 75,95 10,0 26,11 35,25 9,14 25,25 36,25 11,0 34,15 52,34 17,19 43,38 59,41 15,4 30,11 33,16 3,5 20,9 38,9 33,0 76,35 89,73 4,10 17,17 32,17 15,0 47,7 73,15 38,13 53,25 73,58 29,48 43,103 29,112 -6,3 -10,19 -10,34 0,31 -23,57 -40,46 -5,-3 -15,-3 -22,1 -7,4 -44,8 -83,9 -101,3 -105,4 -105,18 0,34 107,77 228,92 65,7 92,23 92,52 0,16 6,23 18,23 32,0 62,42 62,87 0,51 -15,63 -87,72 -32,4 -64,10 -71,14 -6,5 -27,4 -45,-2 -17,-5 -66,-14 -107,-21 -41,-6 -85,-18 -98,-26 -25,-16 -185,-80 -242,-96 -19,-6 -42,-16 -50,-23 -8,-7 -32,-16 -52,-20 -33,-6 -38,-5 -38,12 0,31 89,113 122,113 8,0 22,17 33,38 11,20 37,58 57,83 21,25 38,54 38,65 0,11 5,25 11,31 8,8 8,17 0,31 -6,11 -11,32 -11,46 0,20 -7,27 -37,35 -49,14 -53,14 -85,-3 -15,-8 -42,-17 -60,-21 -18,-4 -40,-13 -48,-20 -8,-7 -60,-34 -115,-59 -55,-26 -107,-51 -115,-56 -34,-21 -139,-70 -149,-70 -6,0 -11,-4 -11,-8 0,-5 -19,-8 -42,-9 -42,0 -73,-13 -146,-62 -20,-13 -59,-30 -87,-38 -27,-8 -69,-26 -93,-39 -23,-13 -49,-24 -56,-24 -7,0 -16,-14 -20,-31 l -6,-32 -58,7 c -51,6 -63,3 -115,-24 -32,-16 -65,-30 -72,-30 -16,0 -82,-35 -106,-56 -8,-8 -22,-14 -30,-14 -8,0 -25,-9 -39,-20 -14,-11 -40,-20 -58,-20 -38,0 -151,-52 -178,-81 -10,-11 -25,-17 -35,-14 -10,3 -38,-7 -67,-25 -27,-16 -55,-30 -62,-30 -7,0 -30,-14 -52,-31 -21,-17 -42,-29 -45,-26 -3,4 -18,-2 -32,-12 -14,-10 -36,-22 -48,-25 -16,-5 -23,-15 -23,-32 0,-23 -3,-24 -63,-24 -55,0 -67,-3 -87,-25 -13,-14 -28,-24 -34,-23 -21,4 -62,-15 -102,-48 -23,-19 -48,-34 -56,-34 -9,0 -21,-7 -28,-15 -7,-8 -21,-15 -31,-15 -11,0 -19,-4 -19,-10 0,-5 -7,-10 -15,-10 -8,0 -23,-4 -33,-9 -36,-18 -108,-49 -129,-56 -13,-3 -23,-11 -23,-16 0,-5 -7,-9 -16,-9 -9,0 -33,-13 -53,-29 -20,-15 -46,-31 -58,-35 -11,-4 -27,-13 -33,-21 -7,-8 -23,-15 -36,-15 -17,0 -32,-12 -50,-40 -27,-41 -50,-51 -60,-25 -5,12 -12,11 -42,-5 -20,-11 -42,-20 -48,-20 -6,0 -30,-14 -52,-30 -23,-16 -51,-30 -63,-30 -11,0 -32,-9 -46,-20 -14,-11 -31,-20 -38,-20 -6,0 -20,-9 -30,-20 -11,-12 -31,-20 -50,-20 -19,0 -39,-8 -50,-20 -10,-11 -31,-20 -47,-20 -15,0 -28,-4 -28,-8 0,-12 -150,-76 -185,-80 -16,-1 -34,-7 -39,-12 -6,-6 -19,-10 -29,-10 -11,0 -25,-7 -31,-16 -10,-13 -18,-14 -55,-4 -23,6 -45,18 -48,26 -3,8 12,33 36,59 22,24 41,51 41,58 0,7 11,24 24,36 14,13 26,33 28,45 2,12 12,22 23,24 11,2 25,10 30,17 6,7 26,32 45,56 19,23 61,74 92,113 32,39 84,100 118,136 128,138 150,164 150,177 0,8 28,42 62,76 35,34 75,80 91,102 15,22 48,60 73,85 25,25 52,57 60,72 8,15 23,32 34,38 11,6 20,17 20,24 0,8 7,16 15,20 8,3 15,11 15,18 0,10 31,45 125,142 17,17 42,47 56,66 15,19 42,51 60,70 19,19 52,58 73,85 22,28 54,64 70,81 17,17 44,49 60,72 17,23 35,42 41,42 6,0 22,21 35,46 12,26 30,55 39,64 84,90 109,119 126,145 10,17 29,38 42,48 13,10 23,25 23,33 0,8 31,47 69,87 91,94 211,234 235,272 10,17 31,44 47,60 16,17 55,64 85,105 31,41 68,86 83,100 34,31 81,95 81,109 0,6 4,11 9,11 6,0 35,30 65,68 31,37 69,83 86,103 18,20 39,49 49,65 10,16 58,71 106,122 49,51 96,105 106,120 9,15 37,50 62,77 75,81 87,95 87,101 0,3 20,25 43,47 24,23 62,70 85,103 23,34 47,68 54,75 8,8 24,30 38,49 41,60 130,159 149,165 9,3 25,20 34,38 37,68 93,140 170,214 31,31 57,61 57,68 0,7 7,15 15,19 8,3 15,10 15,16 0,12 27,52 88,128 23,30 42,62 42,73 0,10 6,19 13,19 12,0 67,62 67,76 0,4 8,12 17,19 14,10 15,16 5,28 -10,12 -8,17 12,31 14,9 31,16 38,16 21,0 58,30 58,47 0,8 13,27 29,42 28,26 121,142 153,191 9,14 24,34 35,45 10,11 33,40 51,65 17,25 50,63 72,85 23,23 42,53 46,72 4,19 14,35 25,38 10,4 19,10 19,14 0,8 59,81 139,171 68,77 91,107 85,113 -3,3 8,13 25,23 17,10 33,25 36,34 9,27 284,294 300,290 9,-2 53,35 118,97 32,31 72,64 90,73 17,9 34,28 38,41 4,20 11,24 37,21 40,-3 75,19 100,62 23,39 37,106 23,106 -6,0 -8,12 -5,30 7,31 -8,60 -31,60 -6,0 -20,-17 -31,-37 z m -14,-5964 c 0,-18 -87,-99 -106,-99 -7,0 -47,-34 -89,-75 -43,-41 -85,-75 -94,-75 -15,0 -51,-59 -77,-125 -10,-26 -11,-115 -2,-115 5,0 8,-9 8,-20 0,-11 5,-20 10,-20 6,0 10,-9 10,-20 0,-11 -4,-20 -10,-20 -5,0 -10,-16 -10,-35 0,-25 -6,-37 -22,-46 -13,-6 -32,-19 -43,-29 -21,-18 -53,-36 -125,-69 -25,-11 -63,-32 -85,-46 -107,-66 -195,-95 -195,-63 0,5 -6,8 -12,7 -19,-2 -58,12 -58,21 0,20 13,40 27,40 14,0 64,41 120,99 13,14 26,36 30,49 7,30 77,102 98,102 18,0 37,43 29,64 -3,9 3,17 15,21 12,3 37,31 56,61 19,30 42,57 50,60 8,3 17,22 21,42 10,65 15,72 51,87 20,9 38,13 41,11 5,-6 21,10 49,49 12,17 33,37 48,45 14,7 24,19 21,26 -3,8 15,14 56,18 47,6 61,11 65,26 3,11 15,22 26,26 12,4 29,17 40,30 17,22 19,22 37,6 11,-9 20,-24 20,-33 z"
       id="path8"
       inkscape:connector-curvature="0" />
    <path
       d="m 17855,11247 c -11,-6 -49,-12 -85,-12 -36,0 -74,-6 -85,-12 -11,-6 -45,-23 -75,-37 -31,-14 -66,-35 -79,-47 -13,-12 -38,-23 -58,-24 -23,-1 -42,-10 -52,-24 -10,-13 -23,-20 -33,-16 -9,4 -28,-5 -46,-19 -16,-15 -35,-26 -40,-26 -6,0 -37,-15 -69,-34 -32,-18 -73,-37 -91,-41 -18,-4 -36,-13 -39,-21 -3,-8 -14,-14 -24,-14 -10,0 -19,-4 -19,-9 0,-5 -10,-13 -22,-16 -13,-4 -35,-18 -49,-31 -14,-14 -35,-26 -48,-29 -12,-2 -42,-18 -67,-34 -25,-17 -54,-31 -64,-31 -10,0 -23,-6 -27,-13 -4,-7 -42,-30 -84,-51 -49,-24 -80,-46 -87,-62 -7,-14 -20,-24 -32,-24 -25,0 -72,-23 -89,-43 -6,-8 -27,-18 -46,-21 -19,-4 -35,-10 -35,-14 0,-4 -15,-16 -32,-26 -68,-39 -203,-131 -215,-145 -6,-9 -17,-16 -25,-16 -7,-1 -41,-14 -75,-29 -45,-20 -63,-34 -63,-47 0,-12 -7,-19 -20,-19 -11,0 -43,-18 -71,-40 -28,-22 -59,-40 -69,-40 -11,0 -32,-12 -47,-26 -15,-14 -38,-30 -50,-35 -12,-4 -25,-19 -28,-32 -5,-18 -22,-31 -61,-47 -30,-13 -54,-26 -54,-29 0,-4 -12,-12 -27,-18 -47,-20 -115,-61 -142,-86 -14,-13 -37,-30 -51,-39 -29,-18 -84,-63 -115,-95 -12,-13 -28,-23 -35,-23 -19,0 -107,-59 -114,-75 -3,-8 -14,-15 -24,-15 -22,0 -72,-50 -76,-76 -2,-13 -10,-18 -25,-16 -11,2 -21,-1 -21,-7 0,-5 -24,-20 -52,-34 -29,-13 -66,-36 -81,-51 -15,-14 -34,-26 -42,-26 -8,0 -19,-8 -24,-19 -8,-15 -122,-91 -136,-91 -2,0 -17,-11 -32,-25 -76,-69 -147,-125 -158,-125 -18,0 -182,-117 -214,-153 -16,-19 -156,-129 -201,-159 -14,-9 -54,-44 -89,-77 -35,-34 -68,-61 -72,-61 -5,0 -31,-22 -57,-50 -33,-34 -56,-50 -74,-50 -28,0 -78,-34 -78,-54 0,-15 -104,-116 -119,-116 -6,0 -11,-7 -11,-15 0,-8 -3,-15 -8,-15 -4,0 -18,-11 -32,-24 -36,-34 -194,-206 -202,-219 -3,-7 -29,-36 -58,-65 -28,-29 -56,-65 -62,-80 -35,-88 13,-200 94,-216 17,-3 46,-17 63,-30 17,-14 49,-28 71,-31 21,-4 61,-18 88,-31 38,-19 51,-22 63,-13 10,9 17,9 25,1 15,-15 94,-16 103,-2 4,7 13,6 26,-1 12,-6 23,-9 25,-6 2,2 34,-2 69,-8 47,-9 89,-10 148,-3 45,5 154,10 242,10 141,1 162,4 178,20 28,29 66,34 82,11 21,-29 131,-43 218,-27 32,5 42,2 62,-16 22,-21 23,-28 19,-109 -2,-48 -9,-109 -15,-136 -6,-28 -12,-63 -12,-80 -1,-16 -6,-37 -12,-45 -18,-27 -55,-94 -67,-120 -6,-14 -19,-43 -28,-65 -10,-22 -37,-56 -60,-75 -46,-38 -120,-140 -120,-164 0,-9 -7,-16 -15,-16 -8,0 -22,-12 -32,-27 -10,-16 -23,-32 -28,-38 -25,-23 -64,-84 -71,-109 -4,-16 -17,-31 -30,-36 -13,-5 -30,-23 -38,-39 -9,-16 -32,-47 -52,-68 -19,-21 -46,-55 -60,-75 -13,-20 -32,-42 -43,-47 -10,-6 -30,-30 -44,-53 -14,-24 -39,-60 -56,-82 -17,-21 -31,-48 -31,-58 0,-11 -8,-22 -18,-25 -10,-2 -22,-12 -27,-22 -26,-47 -89,-131 -134,-179 -28,-30 -51,-58 -51,-64 0,-6 -15,-27 -32,-48 -74,-85 -124,-145 -133,-160 -41,-67 -79,-120 -86,-120 -4,0 -15,-19 -25,-43 -21,-51 -76,-97 -181,-153 -18,-10 -33,-21 -33,-26 0,-4 -24,-19 -52,-34 -29,-14 -62,-34 -73,-44 -11,-10 -49,-34 -85,-52 -44,-23 -65,-40 -64,-52 1,-10 -4,-16 -15,-15 -21,2 -81,-21 -81,-31 0,-9 -43,-36 -125,-80 -27,-14 -63,-38 -79,-53 -16,-15 -32,-24 -37,-22 -4,3 -10,2 -13,-3 -3,-5 -39,-25 -80,-46 -42,-21 -76,-44 -76,-52 0,-7 -4,-15 -10,-15 -5,-1 -14,-2 -18,-3 -5,0 -17,-9 -27,-19 -9,-10 -24,-16 -31,-13 -15,6 -75,-22 -134,-61 -19,-13 -37,-23 -40,-23 -3,0 -14,14 -23,30 -23,37 -43,38 -87,2 -19,-16 -45,-34 -58,-41 -13,-7 -28,-26 -34,-42 -5,-16 -19,-34 -29,-40 -11,-5 -17,-14 -14,-20 4,-5 -9,-16 -28,-24 -38,-16 -59,-37 -56,-57 5,-29 -20,-68 -45,-68 -39,0 -50,-23 -25,-53 21,-27 19,-47 -5,-47 -8,0 -16,-10 -19,-21 l -6,-21 -33,23 c -18,13 -37,29 -41,36 -4,7 -13,13 -18,13 -6,0 -8,-4 -5,-9 5,-8 -55,-25 -93,-26 -8,0 -16,-5 -18,-12 -3,-7 -10,-10 -17,-7 -7,3 -26,-9 -43,-26 -27,-27 -33,-30 -51,-19 -16,10 -23,9 -43,-9 -31,-30 -35,-28 -42,15 -7,41 -1,57 19,49 10,-4 14,2 14,20 0,13 7,27 16,31 9,3 14,13 11,25 -3,10 1,25 9,32 8,8 14,21 14,28 0,15 43,58 59,58 5,0 16,10 22,22 7,13 24,34 38,49 14,14 37,40 51,58 29,39 67,84 94,113 10,11 19,32 19,45 0,16 7,27 21,33 11,4 29,16 38,27 10,10 29,29 43,43 14,13 25,28 25,31 0,9 46,60 118,132 28,28 52,56 52,61 0,12 145,149 193,182 20,15 49,27 62,28 29,1 98,64 117,106 9,22 21,31 49,35 34,6 79,36 79,53 0,13 97,29 115,20 12,-7 28,3 67,41 28,28 70,57 92,65 41,13 41,14 14,21 -29,7 -36,19 -18,30 6,3 10,13 10,21 0,19 -54,74 -72,73 -35,-1 -122,-38 -146,-61 -15,-14 -37,-28 -49,-32 -12,-4 -27,-13 -33,-21 -7,-8 -21,-15 -31,-15 -22,0 -61,-20 -72,-37 -4,-6 -27,-22 -52,-34 -25,-12 -45,-26 -45,-31 0,-4 -5,-8 -12,-8 -6,0 -33,-18 -59,-40 -26,-22 -52,-40 -56,-40 -5,0 -18,-8 -29,-17 -29,-26 -77,-58 -97,-66 -9,-4 -22,-18 -27,-32 -8,-20 -15,-25 -29,-20 -14,4 -29,-4 -52,-30 -18,-19 -38,-35 -45,-35 -7,0 -18,-9 -24,-20 -6,-11 -16,-20 -23,-20 -7,0 -32,-18 -57,-40 -25,-21 -81,-70 -124,-107 -113,-97 -413,-397 -421,-422 -3,-12 -11,-21 -17,-21 -18,0 -60,-39 -77,-72 -9,-18 -26,-37 -39,-43 -12,-5 -25,-18 -28,-28 -3,-9 -16,-25 -30,-33 -13,-9 -37,-37 -53,-62 -16,-26 -37,-56 -48,-67 -38,-41 -133,-167 -133,-179 0,-6 -9,-22 -20,-36 -11,-14 -20,-32 -20,-41 0,-9 -6,-22 -14,-28 -7,-6 -19,-32 -26,-56 -7,-25 -17,-48 -21,-51 -5,-3 -9,-38 -9,-78 0,-78 10,-96 60,-111 14,-4 33,-14 42,-22 12,-11 21,-12 36,-4 10,5 28,7 40,4 12,-3 45,2 73,11 28,10 58,15 66,12 8,-3 24,0 36,6 12,7 45,17 72,23 37,7 53,16 60,32 5,13 17,23 26,23 9,0 22,6 29,14 6,8 17,13 24,10 7,-3 21,4 31,16 10,11 28,20 41,20 12,0 24,6 27,13 3,9 8,9 21,-2 14,-12 20,-11 40,8 16,15 26,19 31,11 4,-6 15,-8 25,-5 10,3 21,1 25,-5 8,-12 -14,-79 -32,-100 -10,-11 -9,-18 6,-35 25,-25 38,-75 21,-75 -7,0 -10,-7 -5,-17 9,-25 35,-173 35,-204 0,-15 7,-32 15,-39 9,-7 25,-32 35,-55 34,-75 77,-89 136,-46 21,16 50,32 64,36 14,4 31,16 38,26 7,10 19,16 27,13 7,-3 28,8 45,25 17,16 37,28 43,25 7,-2 17,6 22,18 6,13 19,23 30,23 12,0 38,17 59,37 22,21 43,38 47,38 4,0 24,16 45,35 20,19 43,35 51,35 7,0 16,7 19,15 4,8 12,15 18,15 7,0 19,12 26,26 16,28 81,84 99,84 6,0 11,8 11,19 0,10 9,21 20,24 11,3 20,11 21,19 0,7 25,33 54,58 29,25 54,50 54,57 1,6 13,21 29,32 36,27 39,31 92,91 25,28 57,64 73,81 15,17 27,34 27,39 0,5 11,18 26,29 14,11 25,23 26,28 0,4 9,20 19,35 10,14 19,29 19,32 0,5 33,41 140,152 17,16 30,35 30,41 0,5 18,25 41,44 57,47 119,109 119,119 0,12 102,130 112,130 4,0 34,17 66,39 31,21 67,42 79,45 12,4 20,13 17,20 -3,7 16,30 43,52 26,21 61,51 78,66 48,44 59,52 88,67 15,8 27,18 27,23 0,4 7,8 16,8 27,0 103,54 104,73 0,11 8,17 25,17 14,0 25,4 25,8 0,5 12,14 26,21 15,6 35,23 46,36 11,14 28,25 39,25 10,0 28,9 39,20 11,11 26,20 33,20 14,0 67,51 67,63 0,4 10,21 21,36 12,16 18,34 15,40 -4,7 1,11 13,11 11,0 23,5 27,11 12,20 15,99 4,99 -6,0 -9,21 -8,52 3,47 0,54 -19,63 -13,5 -23,17 -23,27 0,9 -7,23 -15,32 -8,8 -15,23 -15,33 0,11 -5,24 -11,30 -8,8 -5,15 8,24 10,8 24,25 31,39 17,35 55,87 102,140 22,25 54,72 71,105 17,33 42,71 55,86 13,14 24,32 24,41 0,8 11,26 24,39 14,13 30,29 36,36 105,109 93,94 179,219 46,68 113,158 131,174 7,7 28,40 42,68 6,12 22,25 36,29 15,3 20,8 12,13 -9,6 -9,12 1,29 8,11 17,21 21,21 4,0 26,27 49,60 23,33 45,60 49,60 3,0 14,19 25,42 10,23 33,62 51,85 18,24 36,59 40,78 3,19 13,40 21,47 25,20 35,58 21,76 -11,13 -10,15 3,10 29,-11 44,8 40,53 -1,23 2,45 8,49 6,3 14,36 17,71 5,50 3,74 -10,101 -9,19 -16,39 -15,44 4,15 -13,44 -25,44 -6,0 -26,15 -44,34 -18,19 -45,37 -61,41 -16,3 -32,13 -35,22 -5,12 -16,14 -46,10 -26,-3 -43,-1 -50,9 -9,9 -33,12 -90,10 -43,-2 -82,-6 -88,-10 -5,-3 -25,5 -45,18 -29,20 -48,24 -112,24 -43,1 -86,-5 -96,-11 -15,-9 -24,-9 -39,1 -23,14 -92,16 -106,2 -5,-5 -43,-11 -84,-14 -41,-2 -83,-7 -93,-11 -10,-4 -24,-2 -33,6 -25,20 -114,47 -121,36 -3,-5 -29,-7 -62,-4 -44,5 -59,11 -74,32 -10,14 -25,25 -32,25 -23,0 -6,81 31,142 19,31 34,60 34,65 0,5 25,31 55,58 45,41 53,54 48,74 -6,23 -4,23 29,17 28,-5 37,-3 42,10 3,9 4,19 1,24 -2,4 8,10 25,13 17,4 58,34 102,77 40,38 80,70 88,70 8,0 20,8 27,19 6,10 24,21 40,24 41,9 162,122 156,146 -4,14 9,30 50,60 30,23 57,50 60,60 3,13 18,21 46,26 22,4 41,10 41,15 0,4 11,11 24,14 17,4 27,16 32,38 3,18 15,39 26,46 10,8 17,21 16,30 -2,10 8,19 31,26 20,6 41,21 50,37 16,29 61,56 100,61 23,3 34,15 45,51 4,11 16,17 35,17 20,0 34,7 40,19 6,10 40,33 76,49 36,17 65,35 65,41 0,18 86,61 122,61 42,0 61,19 56,57 -2,23 1,29 22,33 14,3 32,10 41,15 18,11 59,82 59,102 0,7 7,13 15,13 9,0 36,20 61,45 24,25 48,45 53,45 5,0 25,18 44,39 19,21 49,42 65,46 16,3 38,15 48,26 9,10 23,19 31,19 7,0 13,7 13,15 0,9 12,20 27,26 15,5 33,19 40,29 8,11 20,20 27,20 7,0 25,11 39,24 15,14 34,26 44,28 10,2 24,16 31,31 10,20 20,27 42,27 25,0 61,22 108,68 8,7 27,19 43,27 15,8 39,26 53,40 14,14 30,25 37,25 6,0 32,18 57,41 26,22 59,43 74,46 15,3 28,11 28,18 0,17 74,65 100,65 11,0 43,22 70,49 71,71 114,95 138,80 16,-10 25,-9 53,8 26,16 38,18 50,10 24,-15 166,19 202,50 16,12 37,23 47,23 10,0 22,5 26,11 9,15 108,2 160,-22 41,-18 55,-39 68,-101 4,-16 2,-28 -4,-28 -5,0 -10,7 -10,15 0,30 -16,13 -45,-47 -16,-34 -41,-74 -55,-89 -47,-50 -62,-71 -66,-98 -3,-14 -11,-33 -19,-41 -7,-8 -15,-26 -17,-40 -1,-13 -13,-30 -26,-36 -35,-17 -92,-73 -92,-90 0,-20 -36,-58 -48,-50 -5,3 -35,-24 -68,-59 -32,-36 -64,-65 -71,-65 -7,0 -13,-9 -13,-20 0,-11 -10,-30 -22,-42 -13,-13 -28,-32 -33,-43 -6,-11 -20,-25 -33,-31 -26,-13 -122,-138 -122,-159 0,-9 -10,-15 -25,-15 -16,0 -25,-6 -25,-16 0,-18 -95,-114 -113,-114 -7,0 -30,-21 -51,-45 -36,-42 -69,-57 -126,-59 -8,-1 -19,-17 -25,-37 -5,-20 -25,-53 -42,-73 -18,-20 -33,-40 -33,-45 0,-4 -14,-23 -31,-40 -17,-18 -28,-39 -25,-46 3,-10 -9,-18 -42,-27 -32,-10 -48,-20 -51,-33 -4,-24 -29,-44 -54,-45 -10,0 -33,-16 -50,-35 -17,-19 -34,-35 -39,-35 -11,0 -48,-38 -48,-49 0,-5 -16,-12 -35,-15 -19,-4 -35,-10 -35,-14 0,-4 -9,-12 -19,-17 -49,-25 -132,-88 -151,-115 -13,-19 -30,-30 -45,-30 -16,0 -37,-16 -66,-50 -31,-36 -48,-49 -68,-48 -34,0 -87,-14 -128,-35 -18,-10 -54,-17 -81,-17 -27,0 -56,-6 -68,-15 -19,-15 -19,-15 2,-33 12,-9 30,-22 40,-28 17,-10 17,-12 1,-46 -9,-20 -17,-47 -17,-60 0,-22 -38,-68 -57,-68 -5,0 -22,-12 -39,-27 -16,-16 -47,-41 -67,-56 -40,-30 -44,-41 -24,-61 39,-40 127,-35 164,8 12,14 29,26 38,26 8,0 15,5 15,10 0,6 8,10 18,10 9,0 32,15 50,33 17,18 61,49 97,68 35,18 69,44 74,56 8,16 19,23 40,23 22,0 34,8 49,33 10,17 37,41 58,52 21,10 55,32 75,47 20,15 47,28 59,28 12,0 38,17 59,37 20,21 45,42 57,48 33,16 143,109 143,121 1,13 91,74 109,74 7,0 23,18 37,40 14,22 33,40 41,40 16,0 114,97 114,112 0,3 14,9 31,13 22,5 35,16 45,41 8,18 30,46 49,61 19,15 35,33 35,39 0,20 55,68 113,98 20,11 37,25 37,33 0,7 5,13 11,13 18,0 88,81 94,109 3,17 22,36 49,54 46,29 92,107 68,115 -24,8 -11,20 29,26 52,8 144,67 163,104 8,16 31,41 50,56 20,15 36,33 36,41 0,8 11,26 25,41 14,15 25,33 25,40 0,7 9,18 20,24 11,6 29,28 40,49 10,21 37,53 60,71 22,17 40,39 40,49 0,9 7,26 15,37 8,10 15,25 15,31 0,7 21,35 48,62 179,185 281,307 282,335 0,8 16,28 96,119 13,15 24,35 24,45 0,9 15,34 34,54 18,20 39,52 46,70 7,18 23,55 36,82 28,56 50,170 41,207 -15,58 -78,92 -122,66 z M 12646,4619 c -14,-11 -26,-27 -26,-34 0,-8 -9,-22 -19,-32 -10,-10 -21,-27 -23,-38 -2,-11 -16,-26 -31,-33 -15,-7 -27,-16 -27,-21 0,-4 -10,-18 -22,-31 -24,-25 -30,-34 -63,-90 -11,-18 -31,-45 -45,-59 -86,-90 -140,-155 -140,-171 0,-10 -8,-21 -19,-25 -10,-3 -34,-24 -52,-47 -19,-22 -42,-48 -52,-57 -10,-9 -37,-34 -61,-56 -40,-38 -101,-69 -126,-63 -6,2 -20,-17 -29,-41 -10,-25 -31,-55 -47,-68 -32,-25 -85,-31 -102,-10 -29,34 -60,211 -40,223 4,3 8,14 8,24 0,17 41,65 82,96 8,7 27,10 41,7 20,-4 27,-1 27,11 0,9 -8,16 -19,16 -14,0 -18,7 -17,33 1,25 10,41 36,63 19,17 43,34 53,37 11,4 21,15 24,25 2,9 21,27 41,40 20,13 64,47 97,77 40,36 73,57 103,65 39,10 43,13 38,34 -7,30 3,40 23,23 23,-20 49,-28 56,-17 4,6 16,10 28,10 18,0 152,61 297,136 34,18 39,-1 6,-27 z"
       id="path10"
       inkscape:connector-curvature="0" />
    <path
       d="m 18380,9240 c -14,-4 -42,-5 -62,-3 -23,4 -38,1 -38,-5 0,-17 -76,-25 -115,-12 -40,13 -95,-1 -95,-26 0,-7 -27,-25 -59,-41 -58,-27 -75,-46 -48,-56 6,-2 9,-8 4,-12 -4,-5 -20,-4 -35,1 -27,10 -56,0 -90,-33 -7,-7 -25,-13 -39,-13 -30,0 -85,-54 -76,-76 3,-9 -1,-14 -11,-14 -9,0 -19,-7 -22,-15 -4,-9 -19,-15 -40,-15 -42,0 -52,-19 -29,-54 19,-28 13,-46 -14,-46 -10,0 -23,-11 -29,-25 -6,-14 -20,-25 -30,-25 -11,0 -36,-11 -56,-25 -20,-14 -42,-24 -48,-22 -7,1 -17,-8 -23,-20 -6,-14 -19,-23 -32,-23 -22,0 -34,-11 -94,-82 -17,-21 -35,-38 -40,-38 -5,0 -17,-7 -26,-15 -82,-71 -131,-110 -182,-144 -33,-23 -62,-50 -66,-61 -4,-11 -19,-28 -33,-37 -30,-18 -152,-142 -152,-153 0,-4 -11,-11 -24,-14 -13,-3 -34,-18 -47,-32 -13,-15 -54,-58 -91,-97 -38,-38 -68,-78 -68,-88 0,-10 -9,-19 -22,-21 -14,-2 -25,-14 -32,-36 -6,-18 -16,-36 -22,-40 -6,-4 -39,-41 -74,-82 -35,-41 -77,-89 -94,-106 -28,-28 -70,-75 -117,-130 -9,-10 -26,-26 -36,-34 -11,-8 -28,-30 -37,-47 -9,-18 -23,-33 -31,-33 -8,0 -15,-5 -15,-11 0,-6 -15,-29 -33,-52 -18,-23 -41,-59 -51,-79 -12,-23 -26,-38 -38,-38 -10,0 -18,-7 -18,-15 0,-8 -7,-15 -15,-15 -8,0 -15,-8 -15,-18 0,-22 -46,-93 -95,-145 -19,-21 -35,-46 -35,-55 0,-10 -9,-23 -20,-30 -11,-7 -20,-17 -20,-23 0,-9 -26,-39 -132,-152 -27,-28 -48,-56 -48,-62 0,-7 -10,-20 -21,-31 -12,-10 -32,-35 -44,-54 -13,-19 -34,-46 -47,-60 -29,-32 -68,-87 -68,-96 0,-4 -14,-21 -30,-38 -38,-39 -116,-141 -153,-201 -16,-25 -34,-45 -40,-45 -7,0 -18,-4 -26,-9 -12,-8 -12,-12 -2,-25 12,-14 10,-20 -13,-43 -15,-15 -25,-32 -22,-40 3,-7 -1,-13 -9,-13 -8,0 -20,-10 -26,-22 -7,-13 -17,-28 -23,-35 -31,-35 -44,-52 -78,-103 -20,-30 -55,-75 -78,-100 -22,-25 -48,-58 -56,-73 -8,-15 -23,-36 -32,-46 -9,-10 -26,-30 -37,-46 -24,-33 -62,-50 -80,-35 -11,9 -14,5 -17,-17 -2,-22 -8,-28 -25,-26 -16,2 -39,-14 -75,-51 -29,-29 -78,-65 -108,-79 -31,-14 -64,-35 -74,-46 -11,-12 -27,-21 -38,-21 -10,0 -27,-9 -38,-20 -10,-10 -38,-28 -62,-39 -65,-31 -95,-61 -101,-103 -5,-31 -1,-44 19,-67 13,-16 24,-39 24,-51 0,-12 9,-35 21,-51 34,-48 43,-96 23,-116 -20,-20 -97,-140 -107,-165 -3,-10 -11,-18 -16,-18 -6,0 -20,-17 -31,-37 -26,-49 -38,-68 -75,-119 -16,-23 -37,-52 -45,-64 -8,-12 -21,-29 -29,-37 -13,-14 -13,-17 3,-28 17,-13 17,-14 -3,-24 -11,-6 -26,-11 -34,-11 -8,0 -26,-24 -40,-54 -14,-30 -37,-65 -51,-79 -13,-13 -29,-41 -35,-62 -11,-41 -37,-75 -57,-75 -12,0 -74,-92 -74,-110 0,-19 -123,-180 -142,-186 -13,-4 -17,-11 -13,-22 17,-40 16,-52 -6,-81 -18,-25 -21,-38 -15,-77 10,-74 25,-90 85,-92 31,0 51,3 51,10 0,29 63,50 73,25 7,-18 64,-19 96,-2 14,7 47,38 74,68 36,43 47,64 47,89 0,23 10,45 30,68 16,19 29,41 30,48 0,7 15,35 32,63 30,44 36,49 70,49 38,0 60,21 51,47 -2,7 14,25 37,40 61,41 133,114 210,214 14,18 33,40 43,51 9,10 17,23 17,28 0,6 9,10 19,10 12,0 26,14 38,37 13,24 35,46 63,60 25,13 73,53 107,88 35,36 70,65 79,65 9,0 44,29 79,65 35,36 71,65 79,65 8,0 57,42 108,93 86,85 176,147 214,147 7,0 17,6 21,13 4,6 17,17 28,23 11,7 20,21 19,34 -1,16 9,26 35,37 20,9 43,19 52,24 9,4 26,5 37,2 14,-3 22,1 27,16 6,19 13,21 73,20 82,-2 102,-11 95,-41 -3,-13 -10,-28 -15,-35 -5,-6 -10,-29 -11,-50 -1,-46 41,-122 82,-146 31,-17 198,-30 207,-16 3,6 29,9 57,8 45,-3 110,12 142,31 6,4 30,12 55,20 25,7 56,24 70,36 14,12 39,26 55,30 17,4 36,11 43,17 9,7 21,6 38,-4 20,-10 29,-10 44,-1 12,7 41,9 85,5 62,-6 66,-5 72,16 5,19 11,22 39,18 18,-3 58,1 88,8 47,11 55,11 60,-2 3,-8 10,-12 15,-8 6,3 8,12 5,20 -4,10 5,16 33,20 21,4 75,16 121,27 67,16 86,17 98,7 12,-10 16,-9 20,8 7,27 51,50 100,51 23,1 54,9 70,17 16,8 41,15 56,15 15,0 30,5 33,11 4,6 13,8 20,5 7,-2 16,-1 21,4 21,19 126,70 146,70 12,0 29,6 37,13 24,21 98,47 130,47 16,0 41,7 57,14 63,33 46,-19 -21,-65 -21,-15 -42,-36 -46,-48 -6,-16 -17,-21 -44,-21 -35,0 -83,-23 -98,-47 -4,-7 -17,-13 -27,-13 -11,0 -20,-7 -20,-15 0,-8 -5,-15 -11,-15 -7,0 -31,-16 -55,-35 -24,-20 -49,-33 -57,-29 -9,3 -21,-4 -30,-17 -10,-13 -31,-25 -54,-28 -28,-5 -38,-12 -37,-24 1,-10 -5,-17 -16,-17 -10,0 -23,-7 -30,-15 -7,-8 -19,-15 -26,-15 -7,0 -23,-13 -36,-30 -12,-16 -27,-30 -34,-30 -6,0 -23,-9 -38,-21 -15,-11 -33,-18 -41,-15 -8,3 -28,-9 -47,-29 -18,-19 -40,-35 -49,-35 -9,0 -41,-22 -70,-50 -30,-27 -59,-50 -65,-50 -6,0 -27,-13 -47,-29 -20,-15 -62,-41 -92,-57 -31,-15 -65,-41 -76,-56 -11,-15 -26,-28 -32,-28 -7,0 -24,-12 -39,-27 -49,-52 -87,-83 -100,-83 -11,0 -64,-40 -109,-85 -9,-8 -21,-15 -27,-15 -7,0 -22,-10 -34,-22 -30,-30 -147,-118 -157,-118 -5,0 -16,-11 -25,-25 -9,-14 -34,-34 -56,-45 -22,-11 -40,-24 -40,-29 0,-13 -45,-61 -58,-61 -6,0 -24,-18 -38,-40 -15,-22 -32,-40 -39,-40 -6,0 -20,-18 -30,-40 -10,-23 -25,-45 -33,-49 -11,-6 -12,-22 -7,-75 6,-55 12,-70 31,-83 13,-8 24,-21 24,-27 0,-7 6,-13 13,-13 67,-4 159,-18 163,-25 7,-10 104,1 121,14 7,6 25,5 48,-1 24,-6 46,-7 63,0 14,5 45,10 69,11 37,0 46,5 53,23 6,15 21,26 40,30 17,4 34,14 37,23 9,23 23,32 56,32 15,0 27,3 27,8 0,4 30,8 68,9 87,2 173,9 192,15 28,9 95,43 108,55 24,23 96,61 127,68 17,4 44,13 60,20 17,8 50,20 75,27 41,12 45,16 42,41 -3,29 21,48 40,29 13,-13 88,-3 109,14 8,8 25,14 37,14 19,0 22,-6 22,-40 0,-39 -6,-48 -54,-88 -22,-18 -20,-49 4,-62 11,-6 18,-15 15,-20 -7,-11 60,-101 84,-114 9,-5 20,-15 24,-23 4,-7 15,-13 22,-13 8,0 15,-6 15,-12 0,-11 27,-27 132,-79 10,-5 61,-9 114,-9 88,0 102,3 160,31 37,18 72,29 84,26 11,-3 23,-1 26,4 3,5 25,9 49,9 32,0 44,4 47,16 2,12 18,17 68,19 67,3 164,23 190,40 8,5 24,8 36,7 11,-2 32,8 47,22 21,19 44,27 118,36 93,12 118,7 106,-22 -2,-8 -23,-22 -45,-33 -24,-12 -50,-36 -67,-62 -15,-24 -32,-46 -38,-51 -26,-16 -67,-117 -67,-164 0,-35 31,-88 51,-88 19,0 34,-16 59,-63 16,-29 23,-33 79,-40 49,-6 67,-4 84,8 12,8 33,15 47,15 14,0 31,5 37,11 7,7 51,12 105,13 51,1 102,7 113,14 25,14 111,42 131,42 8,0 26,11 40,25 14,14 36,28 50,31 14,4 48,26 75,49 48,41 86,57 139,59 47,2 152,31 157,43 3,7 15,13 27,13 12,0 32,10 46,23 29,26 73,47 99,47 10,0 24,7 31,15 7,9 18,14 25,12 6,-3 28,4 50,14 21,10 43,19 49,19 6,0 23,6 37,14 14,7 51,16 81,20 29,4 67,16 83,26 17,11 40,20 53,20 13,0 22,6 22,15 0,8 9,15 19,15 11,0 40,9 66,20 25,11 49,19 53,18 15,-4 82,45 82,59 0,12 3,13 15,3 15,-12 70,-6 91,12 7,5 16,8 20,6 14,-4 118,33 135,48 8,8 25,14 36,14 32,0 62,40 57,78 -2,17 1,32 6,32 6,0 10,-7 10,-15 0,-8 6,-15 14,-15 23,0 28,-17 11,-33 -8,-9 -15,-18 -15,-21 0,-12 -44,-56 -56,-56 -6,0 -30,-17 -51,-37 -55,-52 -136,-118 -144,-118 -4,0 -21,-19 -37,-41 -18,-24 -50,-51 -76,-63 -25,-13 -44,-26 -43,-30 1,-3 -16,-24 -38,-46 -22,-22 -48,-50 -57,-64 -9,-14 -24,-26 -33,-27 -32,-5 -45,-14 -45,-31 0,-10 -25,-45 -56,-78 -55,-59 -84,-108 -84,-141 0,-9 -9,-24 -19,-33 -10,-9 -23,-32 -28,-51 -12,-45 -5,-120 12,-120 7,0 18,-7 25,-15 7,-8 16,-13 20,-10 4,3 15,-7 24,-20 9,-14 22,-23 28,-19 5,4 14,1 18,-6 14,-22 142,-23 207,-1 32,11 87,27 123,37 36,9 74,26 86,36 12,10 37,23 57,29 53,14 157,123 157,163 0,21 38,58 51,50 6,-3 19,3 30,15 23,24 44,28 35,6 -5,-15 19,-22 26,-7 2,4 16,14 33,22 30,16 49,53 23,47 -7,-2 -10,-2 -5,0 4,3 7,9 7,14 0,5 8,18 18,28 34,39 42,50 42,65 0,23 19,30 82,28 44,-1 60,2 64,13 4,8 15,15 25,15 11,0 22,7 25,15 4,11 11,12 24,5 12,-7 23,-4 38,10 11,11 32,22 46,26 15,3 30,12 34,18 4,7 25,20 46,30 22,10 60,33 85,51 25,17 62,38 81,45 19,7 42,19 51,27 8,7 19,13 23,13 4,0 22,11 39,24 18,13 46,28 62,33 40,11 122,61 158,96 16,15 37,27 48,27 10,0 19,7 19,15 0,19 24,31 80,40 25,4 50,11 55,15 13,10 131,23 225,25 41,1 94,8 118,15 45,13 42,14 134,-31 28,-14 36,-11 40,14 3,20 8,22 57,19 35,-2 61,2 76,12 13,8 45,20 72,26 90,21 102,29 115,74 16,57 23,63 78,71 27,4 51,13 54,20 2,7 22,21 43,30 21,9 51,23 66,31 16,8 41,14 56,14 36,0 91,27 91,45 0,14 57,35 92,35 9,0 27,4 40,9 13,5 35,12 50,15 15,4 36,16 47,27 11,12 26,19 35,16 8,-3 30,8 51,25 64,56 105,68 105,33 0,-7 14,-25 30,-38 17,-14 30,-29 30,-34 0,-10 55,-60 82,-74 18,-10 18,-11 -1,-38 -11,-15 -23,-39 -26,-53 -4,-14 -20,-36 -37,-49 -54,-43 -131,-113 -177,-161 -25,-27 -50,-48 -55,-48 -6,0 -24,-16 -41,-35 -16,-19 -33,-35 -38,-35 -4,0 -48,-40 -96,-90 -49,-49 -94,-90 -99,-90 -15,0 -162,-144 -162,-158 0,-13 -77,-92 -90,-92 -13,0 -130,-115 -130,-128 0,-12 -63,-91 -110,-137 -16,-17 -30,-33 -30,-38 0,-4 -9,-16 -20,-27 -11,-11 -20,-28 -20,-39 0,-10 -9,-30 -20,-44 -14,-18 -20,-39 -19,-70 3,-69 22,-86 108,-98 55,-8 76,-7 81,1 4,6 25,14 46,17 30,4 44,12 55,32 14,23 26,29 82,39 53,8 77,18 114,49 49,39 86,76 107,104 6,9 30,28 54,43 30,19 44,35 49,57 3,18 15,35 28,41 13,6 29,21 36,34 7,13 16,24 21,24 5,0 32,25 62,55 29,30 59,55 67,55 8,0 28,17 44,36 38,46 96,83 163,106 62,22 114,72 109,106 -3,12 -1,22 2,22 15,0 88,77 94,99 8,32 -9,61 -36,61 -17,1 -9,8 30,33 29,18 58,44 65,60 7,15 17,27 22,27 5,0 40,31 76,69 75,77 102,95 130,86 15,-5 18,-2 14,8 -11,30 100,71 225,82 41,4 89,14 107,21 18,8 47,14 64,14 17,0 49,9 70,19 22,11 40,16 40,11 0,-15 83,-1 104,18 35,31 52,33 75,6 l 22,-25 26,21 c 29,23 45,25 71,9 15,-10 26,-6 61,19 23,17 48,29 56,26 7,-3 16,-1 20,5 3,6 24,11 45,11 28,0 47,7 66,25 15,14 33,25 40,25 8,0 14,6 14,14 0,9 17,13 62,14 38,1 64,6 69,14 4,7 22,13 39,14 17,1 39,9 49,18 10,9 29,16 44,16 15,0 42,9 62,20 20,11 44,20 53,20 10,0 56,12 103,26 46,14 101,25 122,24 22,0 44,3 50,8 7,5 34,15 61,21 27,7 61,21 76,31 15,10 37,20 51,22 13,2 29,6 34,9 23,14 84,30 121,31 22,1 56,12 79,26 22,14 48,25 58,24 9,0 17,4 17,9 0,6 7,6 19,0 15,-8 28,-4 62,23 33,24 55,33 88,34 38,2 115,31 194,73 21,12 22,5 0,-32 -10,-16 -23,-29 -30,-29 -8,0 -16,-7 -19,-15 -9,-23 -33,-19 -27,5 8,29 -18,17 -38,-18 -17,-29 -74,-52 -133,-52 -27,0 -35,-5 -40,-22 -3,-14 -22,-31 -48,-43 -23,-11 -49,-32 -57,-47 -17,-29 -26,-34 -35,-19 -7,10 -56,-9 -56,-21 0,-5 -20,-8 -45,-8 -34,0 -47,-5 -55,-20 -6,-11 -17,-20 -24,-20 -7,0 -21,-9 -31,-20 -10,-11 -22,-20 -26,-20 -5,0 -31,-13 -57,-30 -27,-16 -57,-30 -66,-30 -9,0 -16,-6 -16,-14 0,-7 -20,-19 -45,-26 -24,-7 -50,-19 -57,-27 -6,-8 -25,-21 -42,-30 -17,-9 -49,-30 -71,-48 -22,-17 -52,-36 -67,-43 -16,-6 -28,-16 -28,-22 0,-5 -9,-10 -20,-10 -11,0 -20,-3 -20,-8 0,-4 -23,-25 -51,-47 -28,-22 -62,-50 -75,-62 -14,-13 -33,-23 -43,-23 -9,0 -30,-14 -47,-31 -16,-17 -48,-40 -71,-51 -23,-11 -49,-31 -58,-44 -8,-13 -21,-24 -29,-24 -7,0 -53,-42 -103,-92 -49,-51 -124,-127 -166,-168 -42,-41 -89,-87 -105,-102 -15,-16 -35,-28 -44,-28 -13,0 -18,-8 -18,-30 0,-16 -6,-33 -14,-37 -8,-4 -15,-17 -17,-28 -2,-11 -14,-24 -27,-30 -23,-10 -30,-25 -11,-25 7,0 9,-11 6,-28 -3,-15 -3,-47 0,-70 7,-52 36,-68 136,-75 64,-4 69,-3 98,24 38,35 75,46 102,30 16,-11 24,-9 49,9 15,11 32,19 36,16 9,-5 77,16 88,27 3,3 15,1 25,-6 16,-10 24,-7 51,20 25,24 39,30 59,26 16,-3 37,2 52,12 16,10 34,14 46,10 22,-7 82,10 116,32 27,18 32,17 40,-9 12,-37 6,-62 -21,-85 -13,-12 -24,-28 -24,-36 0,-7 -5,-18 -11,-24 -6,-6 -11,-17 -13,-26 -1,-9 -13,-24 -26,-35 -46,-37 -17,-169 41,-187 9,-3 29,-16 45,-30 15,-13 38,-26 52,-30 29,-7 106,28 127,58 12,17 15,18 15,5 0,-29 22,-25 60,13 20,20 52,40 71,44 19,4 38,10 43,13 6,3 19,7 30,8 12,1 34,6 50,10 19,5 31,2 37,-7 7,-12 10,-11 21,2 7,9 24,19 38,22 14,3 63,19 109,36 46,17 88,28 92,25 5,-3 32,11 60,31 30,21 63,35 81,35 16,0 36,7 44,15 9,8 27,15 40,15 14,0 44,10 67,22 23,12 53,23 67,25 32,3 123,44 133,60 4,7 21,13 38,13 16,0 47,11 69,25 22,14 44,25 48,25 5,0 19,9 32,20 13,11 34,20 47,20 18,0 23,5 23,26 0,21 4,25 17,20 11,-5 23,0 33,15 13,17 31,22 83,26 37,3 67,9 67,14 0,4 16,13 36,19 20,7 40,22 46,36 7,15 20,24 34,24 20,0 63,17 126,51 10,5 25,9 33,9 8,0 23,9 32,20 10,11 26,20 36,20 13,0 17,6 15,22 -2,13 2,23 7,23 46,1 181,59 195,84 5,10 23,21 39,24 37,8 74,46 67,71 -2,10 -1,29 5,43 9,23 8,24 -29,17 -54,-10 -92,-32 -110,-65 -10,-16 -25,-29 -34,-29 -25,0 -73,-33 -73,-50 0,-17 -34,-28 -96,-29 -28,-1 -51,-7 -59,-16 -7,-8 -24,-15 -37,-15 -16,0 -27,-7 -30,-19 -4,-16 -9,-18 -28,-9 -16,7 -29,7 -43,-1 -11,-6 -28,-11 -37,-11 -9,0 -51,-16 -93,-36 -42,-20 -87,-40 -99,-45 -13,-5 -23,-13 -23,-17 0,-5 -18,-12 -40,-16 -22,-3 -40,-10 -40,-15 0,-12 -55,-31 -89,-31 -14,0 -44,-12 -66,-25 -22,-14 -48,-25 -57,-25 -10,0 -18,-4 -18,-9 0,-19 -41,-23 -65,-7 -33,22 -45,20 -75,-9 -22,-21 -37,-25 -98,-27 -47,-2 -73,-7 -76,-15 -3,-7 -21,-13 -40,-13 -19,0 -36,-4 -38,-9 -3,-10 -158,-45 -165,-37 -4,4 16,28 119,137 60,64 128,119 149,119 9,0 19,8 22,19 2,10 33,38 68,62 35,24 69,47 74,51 56,44 107,78 118,78 7,0 18,9 25,21 7,11 29,27 48,35 18,8 34,18 34,23 0,9 49,17 155,24 33,2 73,11 89,20 26,14 30,14 44,1 13,-14 20,-10 61,34 25,27 53,52 61,54 8,3 15,13 15,24 0,13 20,29 69,54 41,21 70,42 72,53 3,24 47,59 56,44 8,-13 66,5 108,33 14,9 48,25 75,35 28,10 61,26 74,37 13,10 32,18 42,18 9,0 19,6 22,13 4,9 7,9 17,0 10,-10 20,-9 44,5 17,9 36,23 42,31 6,7 18,12 27,10 13,-3 3,-19 -43,-69 -33,-36 -60,-70 -60,-77 0,-7 -7,-16 -15,-20 -8,-5 -24,-26 -34,-47 -18,-34 -18,-42 -6,-83 15,-51 38,-72 77,-73 15,0 29,-4 32,-8 3,-5 57,-8 121,-8 102,1 116,0 121,-16 6,-20 20,-24 26,-7 7,22 469,28 504,7 17,-11 89,19 86,35 -4,25 17,30 72,17 37,-9 69,-9 113,-3 34,5 67,6 74,3 12,-8 68,16 82,34 5,6 5,-9 1,-34 -3,-25 -7,-45 -8,-45 -6,0 -106,-54 -126,-68 -14,-9 -36,-19 -49,-22 -13,-2 -32,-12 -42,-21 -11,-10 -25,-13 -40,-9 -17,6 -21,4 -16,-9 3,-8 2,-18 -4,-21 -5,-4 -7,-11 -3,-16 4,-7 -7,-8 -29,-4 -31,6 -40,2 -75,-29 -23,-21 -50,-36 -64,-36 -14,0 -31,-6 -37,-14 -6,-7 -35,-16 -63,-19 -29,-4 -55,-13 -60,-21 -7,-13 -142,-96 -155,-96 -10,0 -103,-64 -103,-71 0,-4 -12,-10 -27,-14 -15,-3 -41,-16 -57,-28 -17,-12 -52,-32 -78,-44 -27,-12 -48,-26 -48,-31 0,-5 -17,-16 -37,-25 -49,-21 -103,-54 -129,-78 -11,-10 -24,-19 -28,-19 -4,0 -12,-5 -19,-10 -17,-15 -121,-92 -187,-139 -30,-21 -72,-55 -92,-75 -20,-20 -42,-36 -48,-36 -6,0 -20,-5 -31,-11 -16,-8 -18,-13 -9,-24 13,-16 43,-4 67,25 9,11 15,12 23,4 8,-8 8,-14 1,-18 -15,-10 6,-54 46,-96 18,-19 33,-40 33,-47 0,-16 12,-17 28,-1 9,9 12,9 12,-1 0,-10 3,-11 13,-2 8,6 17,8 21,4 4,-4 33,-13 64,-19 72,-15 143,-7 161,18 9,14 20,18 38,13 37,-9 95,5 100,25 3,10 15,22 28,28 13,6 31,25 40,42 13,25 20,30 38,24 12,-4 24,-11 25,-15 8,-20 32,-8 32,16 0,20 5,25 24,25 13,0 37,7 52,15 16,8 38,15 50,15 41,0 145,43 173,71 16,16 37,29 45,29 9,0 16,4 16,9 0,5 18,12 39,16 22,3 47,13 58,20 10,8 30,15 45,15 16,0 42,13 60,29 19,16 45,31 58,33 17,2 26,10 28,25 4,26 20,30 28,8 9,-22 61,-19 76,5 7,11 23,20 36,20 27,0 39,24 22,45 -10,12 -9,15 8,15 12,0 24,-4 27,-10 4,-6 16,-5 34,5 16,8 31,12 33,9 3,-2 11,2 18,11 7,8 23,15 35,15 13,0 25,7 29,15 3,8 0,15 -6,15 -6,0 1,11 14,25 15,15 32,23 41,19 11,-4 16,2 19,18 3,22 7,23 86,24 58,1 88,6 100,17 9,8 28,18 41,22 63,19 90,35 85,50 -4,8 -13,15 -21,15 -8,0 -11,5 -8,10 3,6 16,10 28,10 l 21,0 -21,15 c -18,13 -25,12 -63,-6 -23,-11 -54,-19 -68,-17 -22,2 -26,-1 -24,-17 2,-18 1,-18 -11,-4 -11,15 -15,15 -32,3 -26,-19 -59,-18 -52,1 4,8 2,17 -3,20 -6,4 -10,0 -10,-8 0,-21 -40,-59 -56,-53 -8,3 -22,2 -32,-3 -9,-5 -37,-17 -62,-26 -73,-28 -111,-49 -125,-68 -7,-10 -19,-15 -28,-11 -9,3 -42,-6 -73,-20 -31,-14 -60,-26 -65,-26 -5,0 -27,-11 -49,-25 -22,-14 -54,-25 -73,-25 -18,0 -41,-6 -52,-13 -42,-29 -141,-41 -186,-22 -9,3 -23,-1 -32,-9 -9,-9 -22,-16 -29,-16 -8,0 -19,-5 -26,-12 -8,-8 -15,-9 -22,-2 -19,19 -1,39 45,53 27,8 47,20 50,32 4,10 11,19 16,19 6,0 26,17 46,37 45,49 195,139 213,128 5,-3 13,3 19,13 9,17 37,32 119,62 17,7 32,17 32,23 0,7 4,7 12,-1 9,-9 14,-6 22,11 7,13 50,42 101,68 57,29 96,56 105,73 8,14 23,26 32,26 30,0 140,51 173,80 11,10 44,26 73,36 28,10 52,24 52,31 0,7 11,13 25,13 25,0 127,48 133,63 2,4 11,7 20,7 10,1 35,9 57,20 22,11 44,19 48,20 5,0 20,9 34,20 14,11 34,20 44,20 11,0 19,7 19,16 0,8 5,12 11,9 5,-4 22,6 36,22 20,21 27,38 25,66 -3,87 -48,119 -135,97 -27,-7 -72,-14 -100,-16 -84,-5 -175,-23 -208,-40 -17,-8 -38,-13 -46,-10 -8,3 -20,3 -25,-1 -6,-3 -42,-5 -80,-4 -49,2 -76,-2 -93,-13 -21,-14 -45,-17 -123,-16 -12,0 -41,-9 -63,-21 -35,-17 -45,-19 -70,-8 -32,13 -127,8 -138,-8 -10,-15 -40,-23 -46,-13 -10,16 -35,12 -29,-5 7,-17 -11,-21 -21,-4 -4,6 -13,8 -20,5 -7,-2 -27,5 -45,15 -18,11 -40,17 -49,14 -29,-12 -61,-16 -61,-7 0,4 -13,13 -30,19 -29,11 -42,45 -21,57 5,3 7,15 4,26 -4,14 3,28 19,43 14,13 28,34 31,48 8,31 46,57 58,38 6,-10 10,-10 23,0 13,11 19,11 31,1 12,-10 15,-10 15,2 0,7 14,26 30,40 17,15 31,31 31,35 0,4 9,7 21,5 11,-1 34,5 51,13 18,8 52,22 77,30 88,31 124,59 137,107 15,56 92,119 135,111 31,-6 167,47 204,79 23,21 41,23 46,6 5,-14 99,28 164,74 26,18 57,40 69,48 12,8 33,23 48,33 22,16 50,22 119,26 9,1 24,9 33,18 19,19 52,26 109,24 22,0 45,4 52,10 8,6 49,13 93,15 62,3 81,0 91,-12 10,-11 29,-14 71,-13 32,1 56,6 53,11 -3,4 8,8 24,8 16,0 35,7 42,15 7,8 24,15 37,15 18,0 28,8 36,30 7,17 17,28 24,26 7,-3 15,-1 18,5 9,13 -25,112 -41,122 -8,4 -14,13 -14,20 0,16 -38,39 -51,31 -6,-3 -38,-8 -71,-10 -33,-2 -66,-8 -73,-14 -8,-6 -30,-8 -54,-4 -28,4 -41,3 -41,-5 0,-6 -15,-11 -34,-11 -19,0 -38,-4 -41,-10 -3,-5 -15,-10 -26,-10 -10,0 -19,-4 -19,-10 0,-5 -9,-10 -20,-10 -11,0 -20,5 -20,10 0,15 -39,12 -55,-4 -8,-7 -51,-19 -97,-26 -45,-7 -89,-19 -96,-27 -7,-7 -27,-13 -43,-13 -16,0 -29,-5 -29,-10 0,-7 -28,-10 -74,-9 -52,2 -81,-2 -97,-12 -37,-23 -139,-53 -184,-54 -35,0 -40,-3 -43,-24 -3,-19 -6,-21 -14,-10 -6,10 -7,4 -3,-18 5,-26 2,-34 -17,-44 -13,-6 -39,-25 -59,-40 -25,-20 -67,-36 -134,-52 -77,-19 -105,-30 -130,-55 -19,-18 -61,-40 -101,-53 -82,-27 -94,-35 -94,-61 0,-16 -3,-18 -13,-9 -10,8 -28,3 -73,-18 -32,-16 -81,-39 -109,-51 -97,-42 -114,-51 -120,-60 -4,-6 -27,-10 -53,-9 -46,1 -144,-15 -163,-27 -5,-3 -7,-9 -4,-14 11,-17 -31,-30 -51,-16 -12,8 -37,12 -64,10 -47,-4 -154,-39 -180,-59 -8,-6 -49,-22 -90,-34 -41,-13 -88,-29 -105,-36 -16,-7 -46,-19 -65,-26 -19,-7 -46,-24 -60,-36 -14,-13 -30,-23 -37,-23 -6,0 -33,-9 -60,-21 -26,-11 -66,-22 -88,-25 -82,-8 -110,-18 -139,-46 -31,-31 -125,-78 -157,-78 -10,0 -21,-4 -24,-10 -3,-5 -19,-10 -34,-10 -16,0 -37,-10 -51,-25 -12,-13 -39,-30 -59,-36 -20,-6 -40,-15 -45,-20 -6,-5 -26,-9 -46,-9 -29,0 -39,-5 -48,-24 -7,-16 -22,-26 -48,-31 -21,-4 -50,-15 -64,-24 -39,-28 -218,-119 -290,-148 -36,-14 -83,-41 -104,-60 -22,-18 -46,-33 -54,-33 -7,0 -33,-16 -56,-35 -24,-19 -48,-35 -53,-35 -5,0 -30,-11 -54,-25 -24,-14 -51,-27 -59,-31 -8,-3 -22,-9 -31,-14 -9,-5 -26,-6 -38,-3 -12,3 -21,1 -21,-6 0,-6 -8,-11 -17,-11 -20,0 -74,-17 -130,-42 -51,-22 -64,-23 -57,-4 9,23 -84,-26 -95,-50 -11,-24 -53,-36 -120,-35 -55,2 -61,6 -61,42 0,17 -6,32 -15,35 -22,9 -18,24 6,24 13,0 58,39 124,107 82,84 106,103 111,90 3,-9 10,-15 15,-12 4,3 6,12 3,20 -6,14 71,94 91,95 6,0 32,22 58,49 26,27 63,56 82,65 19,10 35,21 35,26 0,5 19,22 43,37 23,15 44,31 47,34 3,3 34,26 70,50 36,24 69,49 73,56 4,7 14,13 22,13 8,0 29,14 47,30 18,17 39,30 46,30 20,0 72,32 72,45 0,16 38,45 60,45 11,0 20,5 20,10 0,6 8,10 19,10 10,0 24,7 31,15 7,8 19,15 27,15 8,0 26,9 40,20 14,11 36,20 49,20 13,0 24,3 24,8 0,7 9,13 66,42 16,8 35,21 43,28 30,29 90,61 127,68 22,3 48,14 59,24 44,38 118,81 131,76 7,-3 16,-1 19,4 7,11 53,32 110,52 21,7 56,29 77,49 31,30 46,36 82,37 25,0 55,7 68,16 12,9 31,16 41,16 9,0 20,7 23,15 4,8 11,15 16,15 5,0 24,10 41,23 50,35 105,57 163,63 30,4 57,11 60,15 3,5 13,9 22,9 26,0 92,51 92,71 0,12 7,19 20,19 28,0 27,44 -2,87 -24,34 -37,40 -54,23 -5,-5 -30,-11 -54,-13 -24,-2 -46,-9 -48,-15 -2,-7 -20,-12 -40,-12 -46,0 -108,-19 -144,-43 -16,-11 -35,-16 -46,-13 -23,8 -63,-6 -87,-30 -16,-17 -18,-17 -29,-1 -13,17 -45,14 -81,-9 -11,-7 -38,-16 -60,-20 -22,-3 -47,-12 -55,-19 -13,-12 -86,-45 -97,-45 -2,0 -1,4 2,10 10,16 -66,8 -112,-11 -22,-10 -44,-15 -47,-12 -3,3 -11,1 -18,-5 -7,-5 -31,-13 -53,-17 -22,-4 -52,-16 -67,-26 -14,-11 -29,-19 -33,-19 -15,0 -100,-45 -111,-59 -9,-12 -17,-12 -41,-2 -26,11 -37,9 -86,-13 -31,-14 -64,-26 -75,-26 -23,0 -113,-26 -159,-46 -17,-8 -35,-14 -39,-14 -5,0 -18,-12 -30,-27 -19,-25 -24,-26 -48,-15 -29,13 -80,6 -111,-15 -11,-7 -34,-13 -52,-13 -17,0 -34,-4 -38,-9 -3,-6 -13,-9 -23,-9 -9,0 -33,-2 -52,-6 -19,-4 -51,-9 -70,-13 -19,-3 -42,-11 -50,-19 -8,-7 -38,-18 -65,-24 -28,-6 -63,-16 -80,-22 -16,-5 -60,-17 -96,-26 -37,-10 -75,-24 -85,-33 -11,-10 -47,-20 -84,-24 -36,-4 -75,-13 -87,-21 -12,-8 -36,-14 -53,-14 -17,0 -33,-6 -36,-14 -3,-8 -21,-14 -45,-14 -21,-1 -43,-3 -48,-6 -5,-3 -30,-8 -57,-11 -88,-9 -114,-16 -114,-28 0,-8 -20,-12 -60,-11 -33,0 -77,-6 -98,-13 -20,-7 -48,-13 -63,-13 -14,0 -29,-4 -35,-9 -5,-6 -31,-11 -57,-12 -27,-2 -50,-6 -53,-10 -6,-10 -105,43 -101,55 2,5 12,14 23,20 10,6 42,29 70,51 29,22 66,48 83,57 17,9 35,27 40,40 9,25 65,78 81,78 5,0 14,9 20,20 6,11 15,20 21,20 6,0 30,14 54,30 24,17 46,30 50,30 3,0 22,16 42,35 20,19 43,35 52,35 9,0 41,18 71,40 30,22 70,46 88,54 17,8 32,22 32,30 0,9 6,16 13,16 7,0 25,11 40,25 15,14 27,24 27,21 0,-7 149,73 179,96 13,10 37,18 52,18 18,0 34,8 41,20 7,11 18,20 25,20 7,0 20,14 28,30 9,17 20,28 25,25 9,-6 62,12 70,24 10,15 91,41 128,41 20,0 52,9 70,20 18,11 38,20 46,20 17,0 51,38 42,47 -9,9 50,33 80,33 14,0 27,7 30,15 4,8 24,18 45,21 50,8 50,24 -1,74 -31,30 -45,38 -58,31 -9,-4 -30,-15 -47,-23 -16,-9 -48,-19 -70,-23 -21,-3 -51,-13 -66,-21 -23,-12 -29,-11 -39,1 -19,23 -49,18 -56,-9 -5,-23 -35,-39 -113,-61 -13,-4 -37,-20 -52,-36 -16,-16 -32,-29 -36,-29 -4,0 -19,-6 -33,-13 -14,-7 -44,-19 -67,-26 -24,-8 -43,-20 -43,-28 0,-7 -8,-13 -17,-13 -10,0 -46,-14 -80,-32 -57,-30 -66,-31 -95,-20 -37,14 -51,6 -24,-14 23,-16 24,-16 -36,-43 -26,-11 -50,-25 -53,-31 -3,-5 -15,-10 -26,-10 -18,0 -64,-21 -114,-53 -64,-40 -96,-57 -111,-57 -9,0 -30,-11 -46,-25 -19,-17 -37,-23 -49,-20 -11,4 -19,2 -19,-4 0,-6 -6,-11 -12,-11 -7,0 -26,-12 -43,-26 -16,-13 -52,-39 -79,-57 -28,-18 -61,-40 -75,-49 -14,-9 -44,-26 -66,-38 -22,-12 -49,-30 -60,-39 -11,-10 -42,-33 -70,-51 -27,-18 -58,-43 -68,-56 -10,-13 -26,-24 -34,-24 -8,0 -24,-11 -35,-25 -11,-14 -24,-25 -29,-25 -5,0 -32,-15 -61,-32 -29,-18 -60,-34 -68,-36 -8,-2 -18,-8 -21,-14 -13,-20 -29,4 -29,42 0,25 6,42 16,48 9,5 17,26 19,56 4,47 29,97 71,143 12,13 25,37 29,51 3,15 19,36 35,47 17,11 30,25 30,31 0,6 18,20 40,33 22,12 40,27 40,32 0,9 119,69 137,69 5,0 22,18 39,41 46,64 62,79 89,79 14,0 30,9 37,19 9,14 19,18 39,14 21,-4 30,1 48,26 15,20 34,33 59,37 35,7 35,8 12,15 -21,6 -22,7 -5,8 13,1 25,12 32,31 7,20 20,31 39,35 16,3 42,12 57,20 16,8 45,15 65,15 21,0 48,9 61,19 14,10 31,17 38,14 7,-3 19,0 26,6 8,6 54,14 103,17 116,9 175,35 180,78 0,6 2,17 2,24 1,6 9,12 18,12 18,0 43,27 44,48 0,7 -10,26 -22,42 -27,38 -81,46 -180,30 -87,-15 -106,-23 -118,-56 -11,-29 -26,-31 -35,-4 -7,22 -20,26 -30,10 -4,-6 -11,-8 -16,-4 -5,3 -33,-8 -62,-24 -29,-16 -70,-32 -92,-36 -21,-4 -51,-14 -65,-21 -14,-7 -64,-16 -112,-20 -49,-4 -90,-11 -94,-16 -3,-5 -22,-9 -43,-9 -30,0 -48,-8 -83,-39 -25,-22 -57,-43 -71,-46 -15,-4 -27,-11 -27,-15 0,-4 -9,-10 -21,-13 -12,-3 -18,-10 -14,-17 4,-6 2,-17 -4,-24 -14,-17 -214,-116 -233,-116 -24,0 -90,-36 -168,-92 -42,-29 -92,-62 -113,-73 -20,-11 -37,-23 -37,-26 0,-4 -18,-14 -41,-23 -28,-12 -43,-25 -51,-46 -5,-17 -15,-30 -22,-30 -7,0 -22,-11 -34,-25 -12,-14 -28,-25 -34,-25 -7,0 -24,-18 -37,-40 -34,-55 -82,-106 -97,-102 -8,1 -10,-5 -7,-18 3,-12 0,-20 -6,-20 -7,0 -11,-8 -9,-18 1,-10 -7,-29 -20,-42 -12,-13 -22,-31 -22,-40 0,-10 -13,-31 -30,-48 -19,-21 -30,-42 -30,-61 0,-25 -7,-33 -52,-55 -29,-14 -62,-26 -74,-26 -13,0 -26,-5 -29,-10 -4,-6 -10,-8 -15,-5 -5,3 -26,-4 -47,-16 -29,-17 -61,-23 -133,-27 -95,-5 -154,-25 -195,-66 -9,-8 -35,-21 -58,-27 -23,-6 -50,-17 -61,-25 -11,-8 -28,-14 -36,-14 -25,0 -70,-24 -70,-37 0,-7 -6,-13 -13,-13 -22,0 -77,-30 -77,-42 0,-7 -5,-6 -14,1 -15,13 -96,3 -193,-23 -48,-13 -53,-12 -72,5 -10,10 -23,28 -26,40 -4,12 -18,31 -31,43 -31,27 -44,113 -19,122 9,4 15,15 13,28 -2,15 3,22 20,24 14,2 27,14 33,29 7,19 14,24 30,20 16,-4 33,7 69,44 26,27 52,49 58,49 5,0 15,7 22,15 7,8 29,15 49,15 20,0 52,9 71,19 19,11 55,30 80,43 25,13 73,42 108,66 35,23 73,42 84,42 17,0 18,3 8,15 -13,16 -1,26 30,23 25,-2 80,14 80,23 0,5 10,9 23,9 12,0 30,9 40,20 9,11 26,20 36,20 11,0 30,15 43,33 19,26 23,45 24,107 1,105 2,110 19,110 9,0 18,7 21,15 7,16 59,45 81,45 8,0 25,8 38,18 12,10 42,24 66,31 63,19 73,25 79,52 5,19 14,25 48,30 28,3 48,13 58,27 11,16 25,22 53,22 37,0 95,-22 107,-41 8,-14 73,0 119,26 22,13 53,26 69,29 30,7 86,-9 86,-25 0,-13 -13,-11 -38,7 -25,17 -28,8 -8,-19 8,-10 20,-15 30,-11 9,3 23,1 30,-5 10,-8 16,-9 21,-1 3,5 14,10 24,10 10,0 30,11 45,25 15,14 30,25 34,25 15,1 103,91 97,100 -3,5 -1,18 4,28 7,14 5,30 -11,63 -12,24 -27,47 -34,52 -7,4 -15,26 -19,50 -10,64 -32,106 -60,113 -14,3 -25,10 -25,15 0,9 -70,6 -100,-4 -94,-32 -117,-42 -132,-58 -10,-11 -29,-19 -49,-19 -18,0 -60,-15 -96,-35 -35,-19 -69,-35 -76,-35 -7,0 -23,-9 -34,-20 -12,-10 -34,-22 -50,-25 -38,-9 -93,-36 -120,-58 -12,-11 -37,-19 -57,-20 -20,-1 -36,-5 -36,-9 0,-4 -7,-8 -15,-8 -8,0 -29,-16 -48,-35 -19,-19 -41,-35 -51,-35 -9,0 -16,-3 -16,-7 0,-5 -17,-19 -38,-33 -20,-14 -43,-31 -50,-37 -7,-7 -20,-13 -28,-13 -8,0 -31,-9 -51,-20 -21,-11 -43,-20 -50,-20 -7,0 -13,-5 -13,-10 0,-9 -27,-23 -95,-51 -11,-4 -34,-11 -52,-14 -17,-3 -43,-18 -57,-31 -24,-25 -25,-25 -36,-5 -17,33 -90,21 -90,-15 0,-8 -11,-20 -25,-26 -14,-6 -25,-17 -25,-25 0,-7 -9,-13 -20,-13 -11,0 -23,-7 -26,-15 -4,-8 -14,-15 -23,-15 -10,0 -35,-13 -57,-29 -34,-26 -41,-28 -55,-15 -11,10 -23,11 -49,4 -18,-5 -37,-7 -42,-4 -5,4 -23,-6 -38,-21 -23,-22 -35,-26 -58,-22 -23,5 -35,1 -51,-17 -12,-12 -19,-25 -16,-28 3,-3 -13,-17 -35,-32 -22,-14 -40,-32 -40,-40 0,-14 -95,-66 -123,-66 -9,0 -17,-6 -17,-13 0,-17 -58,-69 -92,-82 -15,-5 -38,-26 -51,-45 -12,-19 -31,-37 -42,-39 -10,-2 -27,-14 -38,-27 -10,-13 -27,-24 -38,-24 -12,0 -23,-10 -29,-25 -6,-15 -17,-25 -29,-25 -11,0 -34,-12 -51,-27 -28,-23 -36,-25 -68,-17 -26,7 -46,6 -68,-3 -17,-6 -57,-13 -90,-15 -52,-3 -59,-6 -62,-26 -4,-23 -17,-29 -27,-12 -11,18 -33,11 -63,-19 -22,-22 -41,-31 -82,-35 -34,-4 -62,-14 -75,-26 -18,-17 -27,-19 -49,-10 -58,22 -82,14 -171,-58 -22,-18 -72,-32 -100,-28 -16,2 -30,4 -30,5 0,1 -20,4 -44,7 -29,3 -52,-1 -67,-11 -13,-8 -42,-15 -66,-14 -24,1 -55,-1 -69,-5 -15,-3 -41,0 -60,8 -24,10 -37,11 -50,3 -12,-8 -26,-5 -55,9 -62,33 -65,47 -17,93 72,68 110,92 145,93 18,0 52,11 76,24 23,13 52,24 62,24 20,0 51,14 80,37 8,6 60,26 115,44 55,17 104,36 109,41 6,4 18,8 28,8 9,0 22,9 28,20 7,14 21,20 45,20 18,0 37,5 40,10 3,6 23,10 43,10 21,0 48,9 62,20 14,11 34,20 46,20 12,0 37,11 56,24 25,16 54,25 98,28 43,3 66,10 75,21 7,9 16,17 20,17 4,0 23,13 41,30 31,27 41,30 100,29 64,-1 65,-1 118,47 30,27 57,58 61,69 3,11 16,38 27,60 20,40 20,42 3,78 -12,25 -24,37 -38,37 -11,0 -30,9 -41,19 -41,37 -113,70 -157,71 -42,2 -132,-7 -155,-15 -6,-2 -16,0 -23,5 -8,5 -40,-11 -85,-42 -45,-31 -78,-47 -90,-44 -24,6 -77,-20 -73,-37 1,-7 -17,-14 -48,-18 -33,-3 -71,-18 -110,-43 -33,-20 -70,-35 -82,-34 -12,2 -35,-7 -51,-19 -17,-12 -43,-25 -58,-29 -16,-4 -38,-15 -49,-25 -12,-11 -39,-18 -70,-20 -53,-3 -95,-23 -95,-44 0,-19 -56,-51 -127,-73 -34,-11 -75,-29 -91,-41 -17,-11 -37,-21 -45,-21 -9,0 -22,-6 -29,-13 -7,-7 -48,-30 -90,-51 -43,-20 -78,-41 -78,-46 0,-12 -94,-55 -139,-64 -19,-3 -40,-15 -48,-26 -8,-11 -25,-20 -38,-20 -23,0 -94,-28 -105,-41 -6,-8 -48,-21 -76,-25 -12,-1 -39,-10 -60,-20 -21,-10 -47,-17 -58,-16 -11,0 -26,-8 -34,-19 -11,-16 -23,-19 -55,-17 l -42,3 0,55 c 0,53 1,55 40,75 61,31 72,105 14,105 -27,0 -84,-37 -99,-65 -14,-25 -83,-65 -113,-65 -10,0 -25,-4 -35,-9 -9,-5 -34,-17 -55,-27 -50,-25 -101,-70 -93,-83 10,-15 -52,-44 -80,-37 -17,5 -24,2 -24,-9 0,-8 -8,-15 -18,-15 -10,0 -25,-11 -32,-25 -7,-14 -18,-26 -24,-26 -41,-5 -55,-9 -89,-27 -21,-11 -43,-25 -50,-30 -7,-5 -25,-12 -42,-16 -16,-4 -47,-18 -67,-32 -21,-13 -46,-24 -57,-24 -10,0 -24,-7 -31,-15 -7,-8 -20,-15 -30,-15 -9,0 -25,-9 -35,-20 -10,-11 -23,-20 -28,-20 -6,0 -18,-7 -28,-16 -13,-12 -28,-15 -54,-10 -31,6 -35,10 -29,29 17,56 100,137 139,137 20,0 78,32 93,52 14,19 150,109 168,112 6,1 19,9 28,19 10,9 25,17 34,17 10,0 28,10 42,23 14,13 46,33 73,46 26,13 52,32 58,42 5,11 20,19 34,19 13,0 40,13 58,30 19,16 37,30 40,30 10,0 102,64 109,76 16,25 59,26 87,2 14,-12 20,-16 14,-8 -17,19 -16,50 1,50 8,0 21,6 28,13 22,22 106,57 135,57 43,0 106,20 119,39 7,9 25,17 41,18 53,5 58,6 66,17 6,8 10,7 14,-2 7,-18 45,-53 52,-47 2,3 -5,14 -17,25 -12,12 -22,23 -22,27 0,10 34,32 51,33 9,0 23,8 33,18 9,11 34,25 56,32 21,7 41,19 44,26 3,8 16,14 30,14 19,0 28,8 37,35 7,19 17,35 22,35 5,0 20,9 33,19 14,11 44,22 67,26 23,4 56,15 73,24 16,10 54,24 83,31 37,9 55,18 58,31 3,11 11,19 18,19 7,0 15,6 18,14 3,7 21,16 41,20 24,5 41,16 52,35 14,24 25,30 66,33 48,5 88,29 88,55 0,7 9,13 20,13 30,0 35,25 15,67 -14,28 -15,38 -5,41 7,3 21,13 31,23 11,11 28,19 38,19 27,0 92,70 89,95 -2,10 -19,30 -38,43 -28,19 -43,22 -75,17 -22,-3 -41,-10 -43,-15 -2,-5 -16,-7 -31,-4 -16,4 -32,1 -35,-5 -9,-14 -41,-14 -65,1 -15,9 -29,9 -63,-1 -102,-31 -159,-52 -211,-76 -31,-14 -60,-25 -65,-25 -6,0 -34,-16 -63,-35 -30,-19 -58,-35 -65,-35 -13,0 -120,-42 -184,-72 -25,-12 -54,-25 -65,-29 -49,-18 -193,-85 -227,-106 -21,-13 -41,-23 -46,-23 -7,0 -65,-27 -102,-49 -8,-5 -31,-16 -50,-24 -19,-9 -51,-25 -70,-35 -19,-11 -56,-30 -82,-42 -26,-13 -55,-31 -64,-41 -10,-11 -25,-19 -34,-19 -10,0 -28,-8 -41,-18 -23,-18 -91,-52 -103,-52 -3,0 -14,-8 -24,-17 -37,-35 -62,-53 -75,-53 -19,0 -180,-80 -192,-95 -11,-14 -78,-50 -168,-89 -31,-14 -60,-32 -63,-40 -3,-8 -11,-13 -19,-10 -7,3 -15,-2 -18,-10 -4,-10 -13,-13 -23,-9 -10,3 -22,0 -28,-8 -6,-8 -29,-23 -51,-34 -22,-10 -70,-36 -107,-56 -37,-21 -70,-33 -73,-28 -4,5 -20,-4 -36,-21 -16,-16 -46,-34 -66,-39 -20,-6 -49,-22 -64,-37 -15,-14 -33,-24 -40,-22 -7,2 -25,-8 -42,-23 -16,-15 -49,-33 -73,-39 -25,-7 -47,-17 -50,-21 -3,-5 -13,-9 -23,-9 -15,0 -101,-37 -163,-71 -10,-5 -23,-9 -29,-9 -6,0 -22,-9 -36,-20 -14,-11 -32,-20 -40,-20 -8,0 -37,-11 -64,-25 -27,-13 -65,-27 -84,-31 -19,-3 -35,-10 -35,-14 0,-5 -10,-11 -22,-15 -13,-3 -50,-17 -83,-30 -63,-24 -97,-37 -105,-40 -3,-1 -18,-8 -35,-15 -16,-8 -37,-14 -46,-15 -34,-4 -109,-30 -109,-38 0,-4 -21,-17 -47,-28 -34,-14 -58,-18 -85,-14 -31,6 -38,4 -38,-9 0,-9 -8,-16 -20,-16 -11,0 -20,-4 -20,-8 0,-4 -26,-16 -57,-26 -32,-11 -66,-28 -75,-38 -15,-16 -26,-18 -85,-13 -37,4 -80,6 -94,6 -33,-1 -58,24 -41,41 7,7 12,22 12,33 0,21 33,65 49,65 5,0 12,11 15,24 6,25 65,66 95,66 10,0 37,20 60,45 46,49 53,52 71,30 7,-8 16,-15 21,-15 16,0 9,22 -13,41 -15,13 -18,19 -8,17 19,-3 60,23 60,38 0,6 11,16 25,22 14,6 25,16 25,22 0,5 5,10 10,10 11,0 160,97 170,110 3,4 13,9 23,13 9,3 17,12 17,19 0,7 22,25 49,40 26,15 54,34 61,43 7,8 23,15 37,15 29,0 73,41 73,68 0,29 21,42 85,52 31,5 62,13 69,18 6,5 27,15 48,21 20,7 53,27 73,46 20,19 43,35 50,35 8,0 16,4 19,9 3,4 18,11 33,14 16,3 42,20 60,37 32,30 72,51 105,55 9,1 29,16 45,33 15,18 33,32 39,32 17,0 74,33 74,43 0,4 7,7 17,7 23,0 123,49 123,60 0,6 8,10 18,10 10,0 29,11 42,24 12,14 35,28 51,31 15,4 33,13 40,21 6,8 17,14 24,14 6,0 20,9 29,19 14,15 28,19 64,16 57,-3 118,19 152,55 14,15 39,30 55,34 17,4 37,13 45,21 10,8 38,12 80,11 48,-1 74,4 98,17 41,24 73,64 65,83 -3,8 2,23 12,34 17,18 16,21 -9,65 -15,25 -32,45 -39,45 -38,0 -194,-23 -202,-30 -5,-5 -48,-11 -95,-15 -47,-4 -96,-12 -110,-17 -14,-6 -49,-12 -78,-14 -55,-4 -149,-30 -157,-44 -2,-4 -18,-6 -34,-4 -17,2 -33,-1 -36,-6 -3,-6 -31,-10 -60,-10 -30,0 -75,-7 -100,-15 -25,-9 -49,-14 -53,-11 -11,7 -134,-24 -152,-39 -8,-6 -33,-13 -55,-14 -22,-2 -46,-7 -52,-13 -7,-6 -20,-7 -29,-4 -9,4 -22,2 -28,-3 -6,-5 -36,-11 -66,-14 -30,-3 -98,-19 -149,-37 -52,-17 -113,-32 -135,-32 -23,-1 -46,-5 -52,-9 -19,-15 -157,-61 -214,-71 -30,-6 -69,-19 -86,-29 -18,-10 -41,-15 -52,-12 -11,2 -23,0 -26,-6 -4,-6 -20,-11 -36,-11 -16,0 -41,-5 -55,-12 -21,-9 -31,-9 -46,0 -24,16 -29,15 -29,-3 0,-12 -13,-15 -55,-15 -42,0 -55,-3 -55,-15 0,-9 -10,-16 -22,-16 -78,-4 -130,-3 -134,3 -3,4 -12,4 -21,1 -13,-5 -15,-2 -10,12 4,9 2,24 -4,31 -9,11 -8,19 5,32 9,10 16,23 16,29 0,17 78,44 107,37 22,-6 24,-4 19,14 -5,14 0,26 19,40 14,11 25,25 25,30 0,6 20,14 44,17 44,7 87,36 99,67 3,10 22,20 44,24 40,7 80,28 99,51 8,9 35,14 75,15 60,0 109,16 211,69 10,5 24,9 32,9 8,0 24,14 36,30 19,26 26,30 54,25 27,-6 40,1 98,47 37,29 67,56 67,60 1,4 17,29 36,55 19,27 39,53 43,58 7,10 8,48 4,130 -2,47 -31,70 -100,81 -23,4 -42,10 -42,14 0,14 -64,18 -115,8 -77,-15 -126,-30 -176,-55 -26,-13 -53,-23 -60,-23 -8,0 -26,-15 -41,-34 -15,-18 -39,-36 -55,-39 -16,-3 -60,-24 -98,-46 -38,-23 -75,-41 -82,-41 -8,0 -37,-13 -66,-29 -28,-16 -63,-32 -77,-36 -26,-7 -44,-14 -144,-60 -33,-15 -91,-38 -129,-51 -38,-13 -83,-32 -101,-44 -19,-11 -39,-20 -46,-20 -7,0 -26,-14 -43,-31 -25,-27 -33,-30 -48,-21 -12,8 -27,9 -41,3 -13,-5 -43,-15 -67,-22 -42,-13 -45,-12 -59,9 -8,12 -21,22 -28,22 -22,0 -16,27 11,54 20,20 23,31 18,63 -11,74 -96,130 -181,119 -67,-9 -172,-38 -172,-47 0,-4 -19,-10 -42,-14 -40,-6 -72,-18 -142,-52 -19,-9 -33,-10 -39,-4 -5,5 -16,7 -23,4 -8,-3 -14,1 -14,11 0,9 5,16 10,16 6,0 10,7 10,16 0,16 27,55 92,134 20,25 40,57 43,73 5,17 14,27 26,27 13,0 19,7 19,21 0,12 24,44 60,78 33,32 60,65 60,74 0,9 6,20 13,24 7,4 23,29 36,55 13,26 32,55 42,64 11,10 19,22 19,28 0,16 99,118 108,112 4,-2 18,20 31,50 13,30 29,54 35,54 6,0 26,23 44,50 18,28 36,50 41,50 26,0 125,125 137,173 3,16 13,31 20,34 8,3 14,11 14,19 0,8 5,14 10,14 6,0 10,6 10,14 0,8 14,28 30,46 17,18 30,37 30,44 0,6 23,35 50,64 28,29 50,59 50,67 0,9 16,25 35,36 19,12 35,24 35,29 0,4 21,30 46,56 25,27 52,63 59,79 7,17 24,42 37,55 12,14 31,38 41,53 9,15 23,27 31,27 16,0 59,54 66,83 3,11 21,29 40,40 45,26 161,56 192,50 25,-5 64,30 132,117 69,88 99,120 113,120 7,0 13,7 13,15 0,8 4,15 9,15 5,0 11,10 13,22 2,14 14,25 36,32 18,6 36,16 40,21 4,6 21,15 37,20 19,7 31,18 33,33 4,23 40,55 53,46 5,-3 33,11 64,31 30,19 60,35 65,35 6,0 10,9 10,20 0,15 7,20 29,20 21,0 36,8 50,28 11,15 29,36 39,47 11,11 22,27 25,36 3,9 21,19 39,23 19,3 53,24 78,46 24,22 49,40 55,40 5,0 21,12 34,25 13,14 29,25 36,25 7,0 18,6 24,14 7,8 42,15 89,19 42,3 84,8 92,11 10,4 19,-2 25,-16 12,-29 68,-37 91,-14 8,9 24,16 34,16 10,0 27,11 38,25 11,14 29,25 41,25 12,0 21,5 21,10 0,6 12,15 26,20 21,8 25,15 20,32 -3,14 1,29 11,41 13,13 17,39 18,96 1,43 5,83 9,89 3,6 -3,28 -14,49 -11,21 -20,43 -20,50 0,7 -4,13 -9,13 -5,0 -15,16 -21,35 -6,19 -18,35 -26,35 -8,0 -14,7 -14,15 0,28 -58,41 -110,25 z"
       id="path12"
       inkscape:connector-curvature="0" />
    <path
       d="m 32755,5229 c -5,-7 -21,-9 -40,-6 -21,3 -40,0 -52,-8 -10,-8 -26,-15 -37,-15 -12,0 -16,-5 -12,-15 3,-10 -1,-15 -12,-15 -10,0 -27,-6 -38,-14 -17,-12 -22,-12 -39,0 -17,13 -18,16 -5,24 8,5 10,10 4,10 -17,0 -37,-27 -29,-40 4,-6 -6,-10 -25,-10 -17,0 -29,-4 -26,-9 9,-15 -44,-33 -60,-20 -8,6 -21,8 -31,3 -10,-4 -21,-8 -25,-8 -14,-2 -21,-16 -8,-16 11,0 11,-3 2,-12 -10,-10 -15,-10 -21,1 -7,10 -13,10 -29,2 -11,-6 -28,-11 -37,-11 -9,0 -35,-9 -57,-20 -47,-23 -94,-26 -101,-7 -2,7 -8,8 -13,3 -5,-5 -4,-11 4,-13 25,-9 11,-22 -19,-18 -47,6 -91,-5 -85,-21 3,-8 -1,-14 -10,-14 -9,0 -12,-5 -8,-12 5,-8 2,-9 -9,-5 -9,3 -19,2 -22,-3 -3,-5 -22,-6 -42,-3 -27,5 -34,3 -29,-6 5,-7 14,-10 22,-7 8,3 14,-1 14,-8 0,-8 -10,-12 -26,-10 -15,1 -28,-4 -31,-13 -4,-10 -14,-13 -33,-9 -41,8 -97,-11 -132,-45 -17,-16 -36,-29 -42,-28 -24,3 -37,-2 -31,-11 3,-5 -3,-10 -14,-10 -11,0 -36,-9 -55,-21 -19,-11 -40,-18 -46,-14 -5,3 -13,-1 -16,-9 -3,-9 -10,-14 -14,-11 -5,3 -38,-11 -74,-30 -37,-19 -71,-35 -77,-35 -22,0 -135,-63 -164,-91 -17,-16 -36,-29 -42,-29 -14,0 -107,-41 -113,-50 -3,-5 -31,-20 -62,-35 -32,-15 -58,-31 -58,-36 0,-5 -7,-9 -16,-9 -21,0 -124,-50 -124,-60 0,-5 -17,-14 -37,-20 -21,-7 -47,-20 -58,-29 -11,-10 -31,-23 -45,-29 -33,-16 -58,-32 -93,-59 -16,-13 -34,-23 -41,-23 -7,0 -52,-27 -99,-60 -48,-33 -89,-60 -92,-60 -2,0 -21,-16 -41,-35 -19,-19 -42,-35 -50,-35 -8,0 -17,-7 -20,-15 -4,-8 -17,-15 -30,-15 -13,0 -24,-5 -24,-11 0,-16 -67,-75 -107,-95 -18,-9 -52,-34 -75,-55 -24,-22 -71,-54 -105,-72 -35,-17 -63,-35 -63,-39 0,-5 -6,-8 -14,-8 -8,0 -18,-9 -21,-20 -4,-12 -24,-32 -46,-47 -43,-29 -130,-113 -169,-163 -34,-45 -55,-67 -71,-73 -12,-5 -12,-7 0,-15 12,-8 11,-15 -6,-38 -11,-16 -18,-35 -16,-42 10,-26 57,-40 127,-36 61,3 71,6 86,29 9,14 20,22 24,18 8,-8 26,15 26,35 0,9 -7,11 -19,7 -15,-4 -23,2 -35,26 -20,41 -20,42 5,28 20,-10 21,-9 15,15 -7,28 8,37 18,11 3,-9 11,-15 18,-14 16,3 61,-18 107,-49 40,-26 50,-22 27,12 -25,39 -20,51 29,65 53,16 82,9 42,-9 -17,-9 -26,-19 -22,-28 3,-7 5,-18 5,-23 0,-16 36,-9 81,16 24,14 58,32 76,40 18,8 36,22 40,30 6,10 32,18 78,22 82,7 115,25 175,92 41,47 47,50 81,46 25,-3 41,0 50,11 10,12 71,44 85,44 10,0 3,-81 -10,-110 -13,-31 -12,-36 16,-84 17,-28 39,-56 49,-64 10,-7 24,-18 31,-26 22,-21 80,-27 102,-11 11,8 36,15 57,15 20,0 42,7 49,15 16,20 40,19 40,-1 0,-9 6,-14 13,-11 6,2 11,10 9,16 -1,6 7,11 18,11 13,0 18,5 14,15 -8,19 12,20 23,1 10,-17 110,-35 146,-25 17,5 32,3 40,-4 14,-14 61,-12 207,7 19,3 63,7 98,10 35,2 69,9 77,16 34,28 129,70 139,60 16,-16 67,-12 88,6 14,14 20,14 33,4 13,-11 19,-10 35,5 11,10 26,15 34,12 9,-4 29,5 46,20 45,37 93,60 147,68 26,4 65,15 88,25 22,9 60,23 84,31 24,7 45,19 48,26 3,7 9,10 15,7 22,-14 114,19 146,52 18,19 46,41 62,49 18,9 32,27 36,43 4,15 12,31 18,35 6,5 2,6 -9,2 -11,-5 -29,-9 -40,-10 -28,-2 -73,-14 -118,-31 -20,-8 -41,-13 -45,-12 -4,1 -20,-4 -35,-10 -16,-7 -43,-12 -62,-12 -19,0 -37,-5 -41,-11 -4,-7 -21,-9 -40,-6 -19,3 -34,2 -34,-3 0,-4 -37,-20 -82,-34 -123,-39 -179,-67 -174,-88 2,-11 -2,-18 -10,-18 -8,0 -14,6 -14,14 0,21 -35,25 -98,11 -31,-8 -82,-16 -112,-19 -30,-3 -77,-13 -104,-21 -61,-19 -77,-19 -101,-1 -17,12 -16,14 21,26 21,7 48,20 59,30 11,10 30,21 43,25 12,3 22,12 22,20 0,14 27,28 39,20 5,-2 14,7 21,20 7,13 26,27 42,30 16,4 32,13 35,21 3,8 20,21 37,28 17,7 53,33 79,57 27,23 65,50 85,59 21,9 43,25 51,34 21,25 65,46 97,46 22,0 24,2 15,14 -10,12 -7,18 17,30 15,8 34,22 41,30 8,9 20,16 27,16 12,0 152,85 164,100 3,3 22,14 42,23 21,10 41,24 45,31 4,7 27,23 49,34 23,12 55,35 72,52 17,16 35,30 41,30 11,0 51,20 61,30 3,3 28,17 55,31 155,83 186,98 188,97 4,-3 120,54 157,78 20,12 50,25 67,28 33,8 51,41 27,50 -20,8 -7,32 16,32 12,0 20,-7 20,-17 0,-27 38,-34 63,-12 62,54 67,63 37,63 -26,0 -26,16 0,23 16,4 18,9 11,29 -4,12 -12,23 -17,23 -30,-1 -95,-18 -100,-26 -3,-5 -13,-9 -23,-9 -10,0 -24,-7 -31,-15 -7,-9 -24,-14 -39,-13 -20,2 -26,-1 -25,-14 2,-17 -18,-22 -73,-21 -6,0 -9,-6 -6,-13 3,-8 1,-14 -5,-14 -5,0 -13,8 -16,17 -6,15 -8,15 -16,3 -8,-13 -10,-12 -10,3 0,9 7,17 15,17 8,0 15,5 15,11 0,19 -63,-8 -66,-29 -5,-43 -58,-89 -111,-96 -9,-2 -19,-10 -24,-18 -7,-12 -20,-15 -46,-13 -23,2 -55,-4 -80,-16 -51,-23 -64,-24 -56,-3 5,14 0,15 -37,9 -24,-4 -50,-14 -58,-21 -7,-8 -19,-14 -25,-13 -9,0 -8,2 1,6 6,2 12,9 12,14 0,5 -9,4 -19,-3 -11,-7 -18,-15 -15,-19 2,-4 0,-10 -6,-14 -5,-3 -10,-1 -10,6 0,7 -9,3 -21,-10 -13,-14 -27,-20 -40,-16 -10,4 -20,2 -20,-4 -1,-6 -3,-15 -4,-21 -1,-5 -3,-13 -4,-17 -1,-5 -5,-2 -9,4 -6,10 -20,8 -62,-7 -30,-11 -56,-20 -57,-20 -2,0 -3,-12 -3,-27 l 0,-26 -26,24 c -24,22 -26,22 -20,4 5,-18 1,-21 -26,-23 -17,-1 -46,-10 -65,-19 -31,-14 -35,-14 -53,2 -28,25 -25,39 10,52 22,8 30,18 30,36 0,14 7,27 15,31 8,3 15,10 15,16 0,6 -4,8 -10,5 -6,-3 -7,1 -4,9 4,10 1,16 -8,16 -7,0 -29,11 -48,24 -33,22 -36,23 -79,8 -24,-8 -51,-21 -60,-28 -9,-7 -27,-22 -41,-32 -21,-17 -23,-22 -11,-36 8,-9 21,-14 28,-12 11,5 13,1 7,-17 -4,-12 -8,-30 -8,-39 0,-9 -3,-15 -7,-12 -4,2 -10,-6 -14,-19 -6,-18 -8,-19 -12,-5 -3,14 -8,13 -30,-8 -20,-19 -28,-21 -35,-12 -11,18 -10,40 2,33 6,-3 10,-1 10,4 0,15 -27,14 -33,-1 -2,-7 -8,-10 -12,-6 -4,4 -2,14 5,23 8,10 9,15 1,15 -6,0 -11,-4 -11,-10 0,-5 -9,-10 -21,-10 -13,0 -19,-5 -16,-13 3,-7 -4,-19 -15,-26 -17,-10 -23,-9 -39,5 -12,11 -24,14 -36,9 -17,-8 -17,-8 0,-12 16,-4 15,-7 -8,-19 -15,-8 -33,-14 -41,-14 -7,0 -29,-8 -49,-17 -24,-12 -31,-19 -23,-25 9,-5 10,-10 3,-15 -6,-5 -21,-23 -34,-40 -22,-32 -23,-32 -49,-16 -17,11 -22,12 -14,3 19,-22 15,-28 -26,-35 -21,-3 -51,-18 -66,-31 -20,-19 -30,-23 -40,-15 -15,13 -27,5 -20,-13 6,-17 -12,-31 -61,-46 -22,-7 -54,-23 -72,-36 -17,-13 -39,-24 -49,-24 -21,0 -124,-62 -149,-90 -10,-11 -31,-20 -47,-20 -15,0 -28,-5 -28,-11 0,-6 -6,-9 -12,-6 -14,4 -84,-29 -94,-44 -3,-5 -10,-9 -15,-9 -6,0 -7,5 -4,10 4,6 -8,10 -29,10 -20,0 -36,4 -36,9 0,21 13,41 26,41 8,0 14,4 14,8 0,4 26,25 58,45 31,20 77,57 101,81 24,25 56,48 72,51 16,4 29,11 29,16 0,5 11,9 25,9 14,0 28,7 32,15 3,9 19,23 36,32 17,8 45,29 62,47 38,37 82,67 153,102 28,14 52,30 52,35 0,5 5,9 11,9 19,0 84,33 92,47 4,7 14,13 21,13 7,0 31,12 52,28 21,15 84,49 139,75 55,27 109,53 120,60 64,36 193,97 216,102 15,4 33,13 40,21 6,8 19,14 29,14 9,0 25,9 35,20 10,11 24,20 31,20 7,0 14,4 16,9 2,5 10,11 18,13 8,2 18,7 21,11 8,12 59,16 59,6 0,-5 5,-9 10,-9 6,0 9,3 9,8 -3,20 2,32 16,32 8,0 15,7 15,15 0,11 11,15 38,14 56,-1 116,24 120,49 4,26 15,28 32,7 9,-11 16,-13 23,-6 7,7 6,15 -3,26 -15,18 -8,28 23,32 12,2 27,10 34,19 6,9 20,14 30,11 16,-4 15,-6 -4,-12 -28,-9 -28,-12 -1,-35 17,-13 25,-15 30,-7 6,9 8,9 8,0 0,-7 11,-13 24,-13 19,0 29,9 42,40 17,39 32,45 63,26 8,-5 16,-4 21,4 14,23 -1,40 -37,40 -20,0 -32,4 -28,10 4,6 11,8 16,5 5,-4 9,-1 9,4 0,17 40,13 46,-4 5,-11 10,-13 19,-5 9,8 14,5 18,-11 4,-14 10,-18 19,-13 7,5 19,9 27,9 20,0 26,25 7,25 -9,0 -16,5 -16,10 0,16 15,12 35,-10 25,-28 32,-18 26,36 -6,47 -22,66 -36,43 z M 31365,4054 c 15,-15 14,-18 -6,-40 -12,-13 -37,-27 -56,-30 -38,-7 -39,-10 -16,-37 17,-18 17,-20 -12,-42 -17,-13 -40,-33 -53,-44 -28,-26 -33,-26 -54,-2 -15,18 -14,21 14,48 16,15 37,40 46,56 9,15 23,27 31,27 8,0 11,3 8,6 -16,16 36,64 80,74 1,0 9,-7 18,-16 z m -385,-191 c 18,-24 21,-124 4,-130 -27,-10 -34,-25 -38,-80 -3,-51 -1,-65 15,-79 20,-18 26,-54 9,-54 -5,0 -29,11 -52,25 -56,33 -167,85 -182,85 -6,0 -20,9 -30,21 -11,13 -25,19 -37,16 -10,-3 -19,-1 -19,4 0,5 4,9 8,9 5,0 15,11 22,25 8,14 18,24 24,22 6,-2 23,17 38,43 28,49 51,63 121,75 21,3 41,13 44,21 3,7 12,14 19,14 8,0 18,8 21,17 5,14 8,14 11,2 3,-7 13,-24 22,-36 z"
       id="path14"
       inkscape:connector-curvature="0" />
    <path
       d="m 30226,4211 c -4,-6 -13,-8 -20,-5 -18,7 -66,-52 -66,-82 0,-13 -4,-24 -10,-24 -5,0 -9,-6 -7,-12 1,-8 -9,-13 -23,-14 -14,0 -32,-4 -40,-9 -13,-8 -13,-6 0,11 8,10 19,22 25,26 5,4 7,10 3,13 -9,9 -99,-55 -92,-66 11,-18 -27,-22 -40,-4 -7,10 -18,15 -25,11 -6,-4 -18,-3 -26,4 -9,7 -15,8 -20,0 -3,-5 2,-10 11,-10 25,0 5,-17 -26,-23 -25,-4 -25,-4 2,-6 15,0 29,3 32,8 9,14 56,0 56,-16 0,-11 4,-13 13,-6 6,5 26,10 42,11 17,1 35,9 42,18 7,10 19,14 28,10 10,-3 25,3 39,17 13,13 29,21 36,19 9,-3 11,3 6,22 -4,16 -2,26 4,26 6,0 15,12 21,27 7,18 13,23 18,15 7,-11 47,-9 59,3 8,7 -11,38 -25,42 -6,2 -14,0 -17,-6 z"
       id="path16"
       inkscape:connector-curvature="0" />
    <path
       d="m 33164,4149 c -9,-10 -19,-18 -23,-17 -3,0 -21,-5 -39,-12 -22,-8 -30,-15 -22,-20 15,-9 4,-30 -16,-30 -8,0 -22,-4 -32,-10 -9,-5 -29,-14 -44,-20 -32,-11 -37,-26 -9,-26 11,0 17,5 14,10 -4,5 4,6 18,3 13,-4 28,-7 32,-7 15,0 -17,-26 -48,-38 -16,-6 -63,-14 -104,-16 -40,-3 -75,-7 -77,-9 -10,-10 -12,-47 -3,-41 5,3 16,0 24,-6 12,-10 15,-9 15,9 0,28 14,27 28,-4 15,-33 5,-57 -19,-50 -16,6 -19,1 -19,-31 0,-36 -1,-37 -17,-21 -15,15 -16,21 -5,38 14,22 8,39 -14,39 -8,0 -26,7 -39,16 -30,20 -55,12 -55,-17 0,-18 3,-19 15,-9 12,10 18,9 32,-5 16,-17 16,-17 -3,-11 -14,4 -27,0 -39,-14 -10,-11 -26,-20 -35,-20 -21,0 -40,-20 -39,-40 0,-10 2,-11 6,-2 7,19 23,14 16,-5 -5,-15 -3,-16 8,-5 16,15 45,16 55,1 8,-13 -7,-30 -32,-33 -11,-2 -21,-11 -23,-21 -6,-31 -35,-54 -74,-57 -35,-2 -54,-18 -22,-18 23,0 18,-31 -6,-37 -12,-3 -18,-11 -15,-19 3,-8 0,-14 -7,-14 -40,0 -108,-117 -87,-150 9,-15 -17,-69 -37,-77 -9,-4 -20,1 -25,10 -5,10 -19,17 -30,17 -12,0 -29,7 -38,15 -16,14 -18,14 -24,0 -4,-10 2,-19 18,-25 26,-10 44,-30 27,-30 -6,0 -11,-6 -11,-13 0,-20 76,-22 84,-2 5,13 15,15 53,9 27,-3 52,-10 57,-15 5,-4 17,-4 28,2 22,12 25,59 3,59 -22,0 -18,13 10,40 25,23 35,70 14,70 -6,0 -8,9 -4,21 5,15 4,19 -4,15 -6,-4 -11,-3 -11,2 0,12 25,22 56,22 13,0 23,3 22,8 -2,4 0,8 5,10 13,4 52,47 52,57 0,6 11,9 23,8 16,-2 22,3 22,16 0,12 18,31 48,49 26,17 55,38 65,46 9,9 19,16 22,16 3,0 26,21 51,47 25,25 59,53 77,62 34,18 47,41 23,41 -25,0 -19,20 10,30 18,7 30,7 39,0 15,-13 25,-3 25,27 0,13 5,23 11,23 6,0 9,-7 5,-15 -8,-22 4,-18 48,15 22,17 47,30 56,30 23,0 73,26 94,49 10,11 25,17 37,14 11,-3 19,0 19,6 0,7 -4,10 -8,7 -5,-3 -19,8 -32,24 -19,24 -29,27 -57,23 -18,-3 -38,-1 -45,4 -26,20 -57,21 -74,2 z"
       id="path18"
       inkscape:connector-curvature="0" />
    <path
       d="m 32652,3503 c 7,-16 20,-41 30,-58 22,-36 22,-45 4,-45 -7,0 -16,-9 -19,-21 -6,-22 -34,-21 -29,1 2,8 -3,10 -14,6 -10,-4 -21,-1 -27,6 -6,9 -7,8 -3,-5 3,-10 6,-25 6,-33 0,-19 49,-18 86,1 17,9 30,11 32,5 5,-15 38,-12 52,5 7,8 28,17 47,21 23,4 37,13 40,25 3,11 9,19 13,19 4,0 10,9 13,20 3,13 0,20 -10,20 -8,0 -17,9 -20,21 -3,11 -17,25 -31,30 -30,12 -39,5 -22,-16 20,-24 -14,-30 -61,-12 -22,9 -47,13 -55,10 -7,-3 -17,2 -20,11 -3,9 -10,16 -15,16 -5,0 -3,-12 3,-27 z"
       id="path20"
       inkscape:connector-curvature="0" />
    <path
       d="m 32095,3422 c 6,-22 5,-23 -14,-13 -17,10 -21,9 -21,-5 0,-9 -6,-14 -13,-11 -8,3 -18,-8 -26,-27 -7,-17 -17,-39 -22,-49 -11,-21 -5,-34 30,-62 46,-37 71,-39 84,-5 4,10 6,8 6,-7 1,-20 3,-21 27,-8 14,7 34,22 44,33 18,19 18,21 2,27 -37,16 -92,16 -98,1 -3,-8 -12,-12 -21,-9 -12,5 -12,7 -1,15 10,7 10,11 1,15 -22,8 -14,23 11,23 14,0 30,10 39,23 13,21 13,25 -10,52 -22,27 -24,28 -18,7 z"
       id="path22"
       inkscape:connector-curvature="0" />
    <path
       d="m 27735,3279 c 8,-20 -11,-34 -45,-34 -20,0 -24,-4 -22,-22 2,-12 -5,-27 -16,-35 -25,-17 -34,-74 -14,-90 19,-16 50,-20 57,-7 5,7 11,6 21,-2 10,-8 14,-8 14,0 0,6 6,11 14,11 16,0 27,33 16,50 -4,7 -13,9 -19,6 -7,-5 -11,2 -11,19 0,18 4,25 13,22 18,-7 17,67 -1,85 -11,11 -12,10 -7,-3 z"
       id="path24"
       inkscape:connector-curvature="0" />
  </g>
</svg>
